<svg width="24" height="24" viewBox="0 0 24 24" fill="none" xmlns="http://www.w3.org/2000/svg">
<path fill-rule="evenodd" clip-rule="evenodd" d="M11.8043 23.9984L12 24C11.735 24 11.4702 23.9913 11.2058 23.9741C10.8787 23.9527 10.5525 23.918 10.2282 23.8701C9.85143 23.8143 9.47752 23.7405 9.10777 23.6491C8.74328 23.5589 8.38325 23.4515 8.02889 23.3274L8.02692 23.3266C7.44338 23.122 6.87664 22.8722 6.33183 22.5796C5.94517 22.372 5.5702 22.1434 5.20863 21.8946C4.80203 21.615 4.413 21.3107 4.04375 20.9834C3.91474 20.869 3.78819 20.752 3.66418 20.6322C1.4049 18.4499 0 15.389 0 12C0 5.3726 5.3726 1.31848e-10 12 1.31848e-10C13.5758 -7.38674e-06 15.1363 0.310376 16.5922 0.913427C18.0481 1.51648 19.371 2.40039 20.4853 3.51469C21.5996 4.62899 22.4835 5.95186 23.0866 7.40777C23.6896 8.86368 24 10.4241 24 12C24 15.3891 22.595 18.4502 20.3357 20.6323C20.3356 20.6325 20.3356 20.6327 20.3357 20.633C19.7673 21.1816 19.1464 21.6731 18.482 22.1004L18.4727 22.1063C18.3221 22.2031 18.1692 22.2965 18.0143 22.3863L17.9979 22.3959C17.7269 22.5525 17.4498 22.6985 17.1674 22.8335C17.0569 22.8862 16.9456 22.9372 16.8336 22.9867C16.7167 23.0381 16.5991 23.0877 16.4808 23.1355C16.366 23.1816 16.2506 23.226 16.1346 23.2687C16.0173 23.3116 15.8993 23.3528 15.7808 23.3923C15.6642 23.4308 15.5471 23.4677 15.4295 23.5027C15.3048 23.5398 15.1796 23.5749 15.0539 23.6079C14.9315 23.64 14.8087 23.6701 14.6853 23.6984C14.5623 23.7265 14.4388 23.7526 14.315 23.7769C13.8102 23.8755 13.2995 23.9416 12.7862 23.9746C12.6586 23.9829 12.5309 23.9891 12.4031 23.9934L12.4006 23.9934C12.2019 23.9999 12.0031 24.0016 11.8043 23.9984ZM13.2 16.8H10.8C8.88845 16.8 7.21664 17.9248 6.4481 19.5695L6.3612 19.7688L6.4364 19.8244C7.80417 20.7986 9.43829 21.4233 11.2083 21.5678C11.2611 21.5721 11.3141 21.576 11.3672 21.5795L11.2156 21.5684C11.2672 21.5726 11.3189 21.5763 11.3706 21.5797L11.3672 21.5795C11.4185 21.5828 11.4698 21.5858 11.5213 21.5883L11.3706 21.5797C11.4241 21.5832 11.4777 21.5862 11.5314 21.5887L11.5213 21.5883C11.5599 21.5902 11.5985 21.5918 11.637 21.5932L12 21.6L12.1504 21.5989C12.2058 21.598 12.2611 21.5967 12.3164 21.5949L12.1645 21.5986C12.2157 21.5978 12.2668 21.5965 12.3178 21.5948L12.3164 21.5949C12.3678 21.5932 12.4191 21.5912 12.4704 21.5887L12.3178 21.5948C12.3707 21.593 12.4235 21.5909 12.4764 21.5883L12.4704 21.5887C12.5238 21.5861 12.577 21.5831 12.6301 21.5797L12.4764 21.5883C12.5284 21.5858 12.5803 21.5829 12.6322 21.5795L12.6302 21.5796C12.6822 21.5762 12.734 21.5725 12.7858 21.5683L12.6321 21.5795C12.685 21.5761 12.7378 21.5722 12.7906 21.5679L12.7858 21.5683C12.836 21.5642 12.8862 21.5597 12.9362 21.5549L12.7906 21.5679C12.8431 21.5636 12.8955 21.5589 12.9477 21.5538L12.9362 21.5549C14.6471 21.3893 16.2266 20.7746 17.5554 19.8302L17.6376 19.7688L17.552 19.5698C16.817 17.9966 15.2554 16.8988 13.448 16.8063L13.2 16.8ZM12 2.40002C6.69808 2.40002 2.40002 6.69808 2.40002 12C2.40002 14.2896 3.20152 16.392 4.53926 18.0418C5.77833 15.8665 8.11788 14.4 10.8 14.4H13.2C15.8822 14.4 18.2218 15.8666 19.4606 18.0416C20.7984 16.392 21.6 14.2896 21.6 12C21.6 6.69808 17.3019 2.40002 12 2.40002ZM12 3.6C14.651 3.6 16.8 5.74903 16.8 8.39997C16.8 10.9706 14.7792 13.0693 12.2395 13.1942L12 13.2C9.34902 13.2 7.19999 11.051 7.19999 8.39997C7.19999 5.82935 9.22077 3.73067 11.7604 3.60585L12 3.6ZM12 6.00001C10.6745 6.00001 9.60001 7.0745 9.60001 8.39997C9.60001 9.72545 10.6745 10.8 12 10.8C13.3254 10.8 14.4 9.72545 14.4 8.39997C14.4 7.0745 13.3254 6.00001 12 6.00001Z" fill="#D1D4DC"/>
</svg>
