<svg width="16" height="16" viewBox="0 0 16 16" fill="none" xmlns="http://www.w3.org/2000/svg">
<path d="M7.99998 2.66634C5.05446 2.66634 2.66665 5.05416 2.66665 7.99967C2.66665 10.9452 5.05446 13.333 7.99998 13.333C10.9455 13.333 13.3333 10.9452 13.3333 7.99967C13.3333 5.05416 10.9455 2.66634 7.99998 2.66634ZM1.33331 7.99967C1.33331 4.31778 4.31808 1.33301 7.99998 1.33301C11.6819 1.33301 14.6666 4.31778 14.6666 7.99967C14.6666 11.6816 11.6819 14.6663 7.99998 14.6663C4.31808 14.6663 1.33331 11.6816 1.33331 7.99967ZM7.99998 4.66634C8.36817 4.66634 8.66665 4.96482 8.66665 5.33301V7.33301H10.6666C11.0348 7.33301 11.3333 7.63148 11.3333 7.99967C11.3333 8.36786 11.0348 8.66634 10.6666 8.66634H8.66665V10.6663C8.66665 11.0345 8.36817 11.333 7.99998 11.333C7.63179 11.333 7.33331 11.0345 7.33331 10.6663V8.66634H5.33331C4.96512 8.66634 4.66665 8.36786 4.66665 7.99967C4.66665 7.63148 4.96512 7.33301 5.33331 7.33301H7.33331V5.33301C7.33331 4.96482 7.63179 4.66634 7.99998 4.66634Z" fill="#2B45DA"/>
</svg>
