<svg width="17" height="16" viewBox="0 0 17 16" fill="none" xmlns="http://www.w3.org/2000/svg">
<path d="M13.8311 15.3581C12.7972 16.2024 11.6685 16.0691 10.5819 15.6691C9.43206 15.2603 8.37714 15.2425 7.16399 15.6691C5.64491 16.2202 4.84317 16.0602 3.93595 15.3581C-1.21205 10.8875 -0.452507 4.07948 5.39173 3.83063C6.81587 3.89284 7.80749 4.48832 8.64087 4.54165C9.88567 4.32834 11.0777 3.71509 12.4069 3.79508C13.9998 3.90173 15.2025 4.435 15.9936 5.39487C12.7023 7.05689 13.4829 10.7098 16.5 11.7319C15.8987 13.065 15.1181 14.3893 13.8205 15.367L13.8311 15.3581ZM8.53538 3.7773C8.37714 1.79533 10.2865 0.15998 12.4808 0C12.7867 2.29304 10.0123 3.9995 8.53538 3.7773Z" fill="white"/>
</svg>
