<svg width="53" height="30" viewBox="0 0 53 30" fill="none" xmlns="http://www.w3.org/2000/svg">
<path d="M26.5001 29.9996C12.644 29.9996 1.41135 29.3432 1.41135 28.5335C1.41135 27.7238 12.644 27.0674 26.5001 27.0674C40.3562 27.0674 51.5889 27.7238 51.5889 28.5335C51.5889 29.3432 40.3562 29.9996 26.5001 29.9996Z" fill="#F7D1E1"/>
<path d="M28.3039 28.257C26.6825 28.257 25.3679 25.6511 25.3679 22.4366C25.3679 19.222 26.6825 16.6162 28.3039 16.6162H32.0706V28.257H28.3039Z" fill="#263238"/>
<path d="M32.0836 28.256C30.4621 28.256 29.1476 25.6501 29.1476 22.4356C29.1476 19.2211 30.4621 16.6152 32.0836 16.6152C33.7052 16.6152 35.0197 19.2211 35.0197 22.4356C35.0197 25.6501 33.7052 28.256 32.0836 28.256Z" fill="#263238"/>
<path d="M6.77616 28.257C5.15482 28.257 3.84015 25.6511 3.84015 22.4366C3.84015 19.222 5.15482 16.6162 6.77616 16.6162H10.5429V28.257H6.77616Z" fill="#263238"/>
<path d="M10.5571 28.256C8.93563 28.256 7.62113 25.6501 7.62113 22.4356C7.62113 19.2211 8.93563 16.6152 10.5571 16.6152C12.1787 16.6152 13.4932 19.2211 13.4932 22.4356C13.4932 25.6501 12.1787 28.256 10.5571 28.256Z" fill="#263238"/>
<path d="M47.5478 25.3255L49.5586 24.8308C50.247 24.6611 50.8254 24.1962 51.1399 23.5602V23.5577C51.2783 23.2805 51.4672 23.0318 51.6989 22.8259L52.1932 22.3856C52.7664 21.8753 53.0614 21.1215 52.989 20.3574L52.7172 17.5106C52.6241 16.5328 51.946 15.7104 51.0066 15.4319L49.5703 15.0058L44.3841 14.6367L47.5504 25.3242L47.5478 25.3255Z" fill="#2B45DA"/>
<path d="M43.1626 28.257C41.5412 28.257 40.2266 25.6511 40.2266 22.4366C40.2266 19.222 41.5412 16.6162 43.1626 16.6162H46.9293V28.257H43.1626Z" fill="#263238"/>
<path d="M46.9423 28.256C45.3208 28.256 44.0063 25.6501 44.0063 22.4356C44.0063 19.2211 45.3208 16.6152 46.9423 16.6152C48.5638 16.6152 49.8783 19.2211 49.8783 22.4356C49.8783 25.6501 48.5638 28.256 46.9423 28.256Z" fill="#263238"/>
<path d="M46.9424 27.0357C45.8047 27.0357 44.8824 24.976 44.8824 22.4353C44.8824 19.8946 45.8047 17.835 46.9424 17.835C48.0801 17.835 49.0024 19.8946 49.0024 22.4353C49.0024 24.976 48.0801 27.0357 46.9424 27.0357Z" fill="#2B45DA"/>
<path d="M17.1512 25.3253L12.0814 13.985C12.0814 13.985 19.668 8.33301 29.2847 8.33301C44.8835 8.33301 44.3478 10.4376 49.5677 15.0069L47.289 16.6154C43.235 16.6154 42.8973 23.0471 42.249 24.8564C42.1481 25.1375 41.8841 25.3253 41.5865 25.3253H17.1512Z" fill="#2B45DA"/>
<path d="M21.6349 28.257C20.0135 28.257 18.6989 25.6511 18.6989 22.4366C18.6989 19.222 20.0135 16.6162 21.6349 16.6162H25.4016V28.257H21.6349Z" fill="#263238"/>
<path d="M25.4158 28.256C23.7943 28.256 22.4798 25.6501 22.4798 22.4356C22.4798 19.2211 23.7943 16.6152 25.4158 16.6152C27.0373 16.6152 28.3518 19.2211 28.3518 22.4356C28.3518 25.6501 27.0373 28.256 25.4158 28.256Z" fill="#263238"/>
<path d="M25.4158 27.0357C24.2781 27.0357 23.3558 24.976 23.3558 22.4353C23.3558 19.8946 24.2781 17.835 25.4158 17.835C26.5535 17.835 27.4758 19.8946 27.4758 22.4353C27.4758 24.976 26.5535 27.0357 25.4158 27.0357Z" fill="#2B45DA"/>
<path d="M20.1766 24.3892C20.6437 22.2652 22.8771 16.6223 25.5556 16.6223L28.4567 13.9854H12.0828C10.948 13.9854 5.91444 14.6821 3.06124 16.6158C0.756678 18.1777 0.475885 20.5491 0.140747 24.0136C0.0721664 24.7208 0.690685 25.3295 1.47224 25.3295C8.03266 25.3321 15.9738 25.3554 18.8645 25.3632C19.5024 25.3645 20.0523 24.9578 20.1779 24.3892H20.1766Z" fill="#2B45DA"/>
<path opacity="0.8" d="M13.2654 13.9856H23.9394C24.4401 13.9856 24.9124 13.7421 25.1932 13.3264C26.3811 11.565 28.4838 9.7803 30.0249 8.93457C19.2332 8.93457 13.2654 13.9856 13.2654 13.9856Z" fill="white"/>
<path opacity="0.8" d="M30.2889 9.46495C28.9937 10.4026 27.5224 11.8558 26.6956 13.2999C26.5209 13.6042 26.7383 13.985 27.0889 13.985H44.5782C46.4325 13.985 45.8178 9.35875 36.1247 9.01165C35.2112 8.93265 33.0813 8.93006 31.9038 8.93524C31.3228 8.93783 30.7612 9.12433 30.2902 9.46495H30.2889Z" fill="white"/>
<path d="M18.3262 22.8008L12.7207 23.2244C12.5395 23.2386 12.3998 23.3888 12.3998 23.5715V23.9548C12.3998 24.1465 12.5551 24.3032 12.7479 24.3032H18.3533C18.5448 24.3032 18.7014 24.1478 18.7014 23.9548V23.1479C18.7014 22.9459 18.5293 22.7853 18.3275 22.8008H18.3262Z" fill="#263238"/>
<path d="M0.504375 22.8826L2.04808 23.1921C2.20982 23.2245 2.32758 23.3669 2.32758 23.5327V23.9536C2.32758 24.1453 2.1723 24.302 1.9795 24.302H0.347805C0.139477 24.302 -0.0222714 24.1194 0.00231409 23.9135L0.0890117 23.183C0.113597 22.981 0.303808 22.8437 0.503079 22.8826H0.504375Z" fill="#263238"/>
<path opacity="0.8" d="M13.7131 16.2753L21.5416 15.8945C21.5416 15.8945 21.6219 17.2829 18.7208 17.5821C15.821 17.8813 13.7131 16.2753 13.7131 16.2753Z" fill="white"/>
<path opacity="0.3" d="M52.716 17.5107C52.694 17.2775 52.6383 17.0535 52.5542 16.8437L52.0237 16.8281C52.0237 16.8281 51.9991 18.8641 52.7664 18.7372C52.7884 18.7333 52.8078 18.7294 52.8298 18.7216L52.7147 17.5094L52.716 17.5107Z" fill="black"/>
<path opacity="0.8" d="M3.83113 16.1497C3.5607 16.2961 3.3032 16.4502 3.06123 16.6147C2.6601 16.8867 2.32107 17.182 2.03252 17.5045C2.13474 17.5342 2.24602 17.5601 2.36507 17.5796C4.10287 17.8787 5.36578 16.2728 5.36578 16.2728L3.83113 16.1484V16.1497Z" fill="white"/>
<path d="M11.287 18.4619H5.74754C5.55733 18.4619 5.36712 18.5228 5.20537 18.6368L4.23748 19.3167C4.01492 19.4734 3.86611 19.7156 3.82988 19.9785L3.58274 21.8137C3.51286 22.3292 3.89199 22.767 4.40958 22.767H10.3347C10.6879 22.767 11.0218 22.5584 11.1874 22.236L12.295 20.077C12.4555 19.7635 12.4283 19.397 12.2252 19.1354L11.9482 18.7792C11.7917 18.5785 11.551 18.4632 11.2883 18.4632L11.287 18.4619Z" fill="#263238"/>
<path opacity="0.1" d="M40.488 22.9395H29.6549C29.5035 22.9395 29.3845 23.069 29.3987 23.2205L29.4544 23.8512C29.466 23.9846 29.5773 24.0869 29.7106 24.0869H40.5437C40.6951 24.0869 40.8141 23.9574 40.7999 23.8059L40.7442 23.1752C40.7326 23.0418 40.6213 22.9395 40.488 22.9395Z" fill="black"/>
<path d="M37.0356 8.93552L36.3861 8.80859L37.7124 14.638H38.3335L37.0356 8.93552Z" fill="#2B45DA"/>
<path d="M34.669 15.29H36.8869L36.9438 15.5232C37.0034 15.7654 36.8559 15.9622 36.6139 15.9622H35.272C35.0301 15.9622 34.7855 15.7654 34.726 15.5232L34.669 15.29Z" fill="#263238"/>
<path d="M42.3008 15.29H44.5186L44.5756 15.5232C44.6351 15.7654 44.4876 15.9622 44.2456 15.9622H42.9037C42.6618 15.9622 42.4172 15.7654 42.3577 15.5232L42.3008 15.29Z" fill="#263238"/>
<path opacity="0.1" d="M37.9569 22.1859C37.997 22.1859 38.0307 22.1535 38.0307 22.1133L38.1937 14.4823C38.1937 14.4409 38.1627 14.4072 38.1213 14.4072H38.12C38.0799 14.4072 38.0462 14.4396 38.0462 14.4798L37.8832 22.1107C37.8832 22.1522 37.9142 22.1859 37.9556 22.1859H37.9569Z" fill="black"/>
</svg>
