<svg width="24" height="14" viewBox="0 0 24 14" fill="none" xmlns="http://www.w3.org/2000/svg">
<path d="M19.458 7C19.458 10.866 16.4424 14 12.7225 14C9.00267 14 5.98712 10.866 5.98712 7C5.98712 3.13401 9.00267 0 12.7225 0C16.4424 0 19.458 3.13401 19.458 7Z" fill="#E14688"/>
<path d="M12.0002 14C5.72568 14 0.639203 13.6937 0.639203 13.3158C0.639203 12.938 5.72568 12.6316 12.0002 12.6316C18.2747 12.6316 23.3611 12.938 23.3611 13.3158C23.3611 13.6937 18.2747 14 12.0002 14Z" fill="#F7D1E1"/>
<path d="M12.817 13.187C12.0828 13.187 11.4874 11.9709 11.4874 10.4708C11.4874 8.97069 12.0828 7.75464 12.817 7.75464H14.5227V13.187H12.817Z" fill="#263238"/>
<path d="M14.5285 13.1865C13.7943 13.1865 13.199 11.9704 13.199 10.4703C13.199 8.97017 13.7943 7.75409 14.5285 7.75409C15.2628 7.75409 15.8581 8.97017 15.8581 10.4703C15.8581 11.9704 15.2628 13.1865 14.5285 13.1865Z" fill="#263238"/>
<path d="M3.06851 13.187C2.33432 13.187 1.73899 11.9709 1.73899 10.4708C1.73899 8.97069 2.33432 7.75464 3.06851 7.75464H4.77421V13.187H3.06851Z" fill="#263238"/>
<path d="M4.78067 13.1865C4.0464 13.1865 3.45115 11.9704 3.45115 10.4703C3.45115 8.97017 4.0464 7.75409 4.78067 7.75409C5.51494 7.75409 6.11019 8.97017 6.11019 10.4703C6.11019 11.9704 5.51494 13.1865 4.78067 13.1865Z" fill="#263238"/>
<path d="M21.5312 11.8187L22.4418 11.5879C22.7535 11.5087 23.0154 11.2917 23.1578 10.9949V10.9937C23.2205 10.8644 23.306 10.7484 23.4109 10.6523L23.6348 10.4468C23.8943 10.2086 24.0279 9.85686 23.9951 9.50026L23.8721 8.17179C23.8299 7.71546 23.5228 7.33167 23.0974 7.20172L22.447 7.00288L20.0985 6.83062L21.5324 11.8181L21.5312 11.8187Z" fill="#2B45DA"/>
<path d="M19.5454 13.187C18.8112 13.187 18.2159 11.9709 18.2159 10.4708C18.2159 8.97069 18.8112 7.75464 19.5454 7.75464H21.2511V13.187H19.5454Z" fill="#263238"/>
<path d="M21.257 13.1865C20.5227 13.1865 19.9275 11.9704 19.9275 10.4703C19.9275 8.97017 20.5227 7.75409 21.257 7.75409C21.9913 7.75409 22.5865 8.97017 22.5865 10.4703C22.5865 11.9704 21.9913 13.1865 21.257 13.1865Z" fill="#263238"/>
<path d="M21.257 12.6171C20.7418 12.6171 20.3242 11.6559 20.3242 10.4702C20.3242 9.28455 20.7418 8.32338 21.257 8.32338C21.7722 8.32338 22.1899 9.28455 22.1899 10.4702C22.1899 11.6559 21.7722 12.6171 21.257 12.6171Z" fill="#2B45DA"/>
<path d="M7.76665 11.8186L5.4709 6.5265C5.4709 6.5265 8.90632 3.88889 13.2611 3.88889C20.3247 3.88889 20.0821 4.87104 22.4458 7.00337L21.414 7.75404C19.5782 7.75404 19.4253 10.7555 19.1317 11.5998C19.086 11.731 18.9665 11.8186 18.8317 11.8186H7.76665Z" fill="#2B45DA"/>
<path d="M9.79699 13.187C9.06279 13.187 8.46747 11.9709 8.46747 10.4708C8.46747 8.97069 9.06279 7.75464 9.79699 7.75464H11.5027V13.187H9.79699Z" fill="#263238"/>
<path d="M11.5091 13.1865C10.7748 13.1865 10.1796 11.9704 10.1796 10.4703C10.1796 8.97017 10.7748 7.75409 11.5091 7.75409C12.2434 7.75409 12.8386 8.97017 12.8386 10.4703C12.8386 11.9704 12.2434 13.1865 11.5091 13.1865Z" fill="#263238"/>
<path d="M11.5091 12.6171C10.9939 12.6171 10.5763 11.6559 10.5763 10.4702C10.5763 9.28455 10.9939 8.32338 11.5091 8.32338C12.0243 8.32338 12.442 9.28455 12.442 10.4702C12.442 11.6559 12.0243 12.6171 11.5091 12.6171Z" fill="#2B45DA"/>
<path d="M9.13665 11.3817C9.34818 10.3904 10.3595 7.75706 11.5724 7.75706L12.8861 6.5265L5.4709 6.5265C4.95702 6.5265 2.67832 6.85167 1.38631 7.75404C0.342731 8.48295 0.215581 9.58961 0.0638201 11.2064C0.0327636 11.5364 0.312848 11.8205 0.666761 11.8205C3.63752 11.8217 7.23349 11.8325 8.5425 11.8362C8.83137 11.8368 9.07981 11.647 9.13665 11.3817Z" fill="#2B45DA"/>
<path d="M6.00706 6.52648H10.8406C11.0673 6.52648 11.2812 6.41285 11.4083 6.21884C11.9462 5.39685 12.8984 4.56399 13.5963 4.16931C8.70945 4.16931 6.00706 6.52648 6.00706 6.52648Z" fill="white"/>
<path d="M13.7158 4.41703C13.1293 4.85462 12.4631 5.53276 12.0887 6.20666C12.0096 6.3487 12.108 6.52639 12.2668 6.52639H20.1865C21.0261 6.52639 20.7478 4.36747 16.3585 4.20549C15.9448 4.16862 14.9803 4.16741 14.4471 4.16983C14.184 4.17104 13.9291 4.25807 13.7158 4.41703Z" fill="white"/>
<path d="M8.29873 10.6408L5.7604 10.8384C5.67837 10.8451 5.61509 10.9152 5.61509 11.0004V11.1793C5.61509 11.2687 5.6854 11.3419 5.77271 11.3419H8.31104C8.39776 11.3419 8.46866 11.2693 8.46866 11.1793V10.8027C8.46866 10.7085 8.39014 10.6335 8.29873 10.6408Z" fill="#263238"/>
<path d="M0.228469 10.6789L0.927506 10.8234C1.00075 10.8385 1.05407 10.9049 1.05407 10.9823V11.1787C1.05407 11.2682 0.983757 11.3413 0.89645 11.3413H0.15757C0.063232 11.3413 -0.0100124 11.2561 0.00112057 11.16L0.0403799 10.8191C0.0515129 10.7248 0.138233 10.6608 0.228469 10.6789Z" fill="#263238"/>
<path d="M6.20981 7.59508L9.7548 7.41739C9.7548 7.41739 9.79112 8.06531 8.47743 8.20492C7.16431 8.34454 6.20981 7.59508 6.20981 7.59508Z" fill="white"/>
<path d="M23.8721 8.17179C23.8621 8.063 23.8363 7.95849 23.7982 7.86058L23.558 7.85333C23.558 7.85333 23.5469 8.80345 23.8943 8.74422C23.9043 8.7424 23.9131 8.74059 23.923 8.73696L23.8709 8.17124L23.8721 8.17179Z" fill="black"/>
<path d="M1.73492 7.53697C1.61245 7.60527 1.49588 7.67728 1.38631 7.75404C1.20466 7.88096 1.05112 8.01868 0.920449 8.16918C0.966739 8.18308 1.01713 8.19517 1.07104 8.20423C1.85797 8.34385 2.42985 7.59439 2.42985 7.59439L1.73492 7.53697Z" fill="white"/>
<path d="M5.11118 8.61585H2.60274C2.5166 8.61585 2.43047 8.64426 2.35722 8.69745L1.91893 9.01476C1.81815 9.08789 1.75077 9.20091 1.73436 9.32361L1.62244 10.18C1.5908 10.4206 1.76248 10.6249 1.99686 10.6249H4.67992C4.83989 10.6249 4.99106 10.5276 5.06606 10.3771L5.56764 9.36954C5.64029 9.22328 5.62799 9.05223 5.536 8.93014L5.4106 8.76393C5.3397 8.67025 5.23072 8.61646 5.11177 8.61646L5.11118 8.61585Z" fill="#263238"/>
<path d="M18.3343 10.7055H13.4287C13.3602 10.7055 13.3063 10.7659 13.3127 10.8366L13.3379 11.131C13.3432 11.1932 13.3936 11.241 13.4539 11.241H18.3595C18.428 11.241 18.4819 11.1805 18.4755 11.1098L18.4503 10.8155C18.445 10.7532 18.3946 10.7055 18.3343 10.7055Z" fill="black"/>
<path d="M16.771 4.17004L16.4768 4.11081L17.0774 6.83122H17.3587L16.771 4.17004Z" fill="#2B45DA"/>
<path d="M15.6993 7.13573H16.7036L16.7294 7.24452C16.7563 7.35754 16.6895 7.44941 16.58 7.44941H15.9723C15.8628 7.44941 15.752 7.35754 15.7251 7.24452L15.6993 7.13573Z" fill="#263238"/>
<path d="M19.1552 7.13573H20.1595L20.1853 7.24452C20.2122 7.35754 20.1454 7.44941 20.0358 7.44941H19.4282C19.3186 7.44941 19.2079 7.35754 19.1809 7.24452L19.1552 7.13573Z" fill="#263238"/>
<path d="M17.1881 10.3535C17.2063 10.3535 17.2215 10.3384 17.2215 10.3197L17.2954 6.75854C17.2954 6.7392 17.2813 6.72349 17.2626 6.72349C17.2444 6.72349 17.2286 6.7386 17.2286 6.75733L17.1547 10.3185C17.1547 10.3378 17.1694 10.3535 17.1881 10.3535Z" fill="black"/>
</svg>
