<svg width="32" height="32" viewBox="0 0 32 32" fill="none" xmlns="http://www.w3.org/2000/svg">
<path d="M0 16C0 7.16344 7.16344 0 16 0C24.8366 0 32 7.16344 32 16C32 24.8366 24.8366 32 16 32C7.16344 32 0 24.8366 0 16Z" fill="#2B45DA"/>
<path d="M16 9.33398C13.0667 9.33398 10.6667 11.734 10.6667 14.6673C10.6667 18.2673 15.3333 22.334 15.5333 22.534C15.6667 22.6007 15.8667 22.6673 16 22.6673C16.1333 22.6673 16.3333 22.6007 16.4667 22.534C16.6667 22.334 21.3333 18.2673 21.3333 14.6673C21.3333 11.734 18.9333 9.33398 16 9.33398ZM16 21.134C14.6 19.8007 12 16.934 12 14.6673C12 12.4673 13.8 10.6673 16 10.6673C18.2 10.6673 20 12.4673 20 14.6673C20 16.8673 17.4 19.8007 16 21.134ZM16 12.0007C14.5333 12.0007 13.3333 13.2007 13.3333 14.6673C13.3333 16.134 14.5333 17.334 16 17.334C17.4667 17.334 18.6667 16.134 18.6667 14.6673C18.6667 13.2007 17.4667 12.0007 16 12.0007ZM16 16.0007C15.2667 16.0007 14.6667 15.4007 14.6667 14.6673C14.6667 13.934 15.2667 13.334 16 13.334C16.7333 13.334 17.3333 13.934 17.3333 14.6673C17.3333 15.4007 16.7333 16.0007 16 16.0007Z" fill="white"/>
</svg>
