<svg width="16" height="16" viewBox="0 0 16 16" fill="none" xmlns="http://www.w3.org/2000/svg">
<path d="M1.33331 2.66634C1.33331 1.92996 1.93027 1.33301 2.66665 1.33301H9.33331C10.0697 1.33301 10.6666 1.92996 10.6666 2.66634V5.33301H13.3333C14.0697 5.33301 14.6666 5.92996 14.6666 6.66634V13.333C14.6666 14.0694 14.0697 14.6663 13.3333 14.6663H6.66665C5.93027 14.6663 5.33331 14.0694 5.33331 13.333V10.6663H2.66665C1.93027 10.6663 1.33331 10.0694 1.33331 9.33301V2.66634ZM6.66665 10.6663V13.333H13.3333V6.66634H10.6666V9.33301C10.6666 10.0694 10.0697 10.6663 9.33331 10.6663H6.66665ZM9.33331 9.33301V2.66634L2.66665 2.66634V9.33301H9.33331Z" fill="#2B45DA"/>
</svg>
