<svg width="12" height="15" viewBox="0 0 12 15" fill="none" xmlns="http://www.w3.org/2000/svg">
<path d="M5 1.70727V7.50039C5 7.633 4.94732 7.76018 4.85355 7.85395C4.75979 7.94772 4.63261 8.00039 4.5 8.00039C4.36739 8.00039 4.24021 7.94772 4.14645 7.85395C4.05268 7.76018 4 7.633 4 7.50039V1.70727L2.85375 2.85414C2.75993 2.94796 2.63268 3.00067 2.5 3.00067C2.36732 3.00067 2.24007 2.94796 2.14625 2.85414C2.05243 2.76032 1.99972 2.63308 1.99972 2.50039C1.99972 2.36771 2.05243 2.24046 2.14625 2.14664L4.14625 0.146643C4.19269 0.100155 4.24783 0.0632756 4.30853 0.0381135C4.36923 0.0129513 4.43429 0 4.5 0C4.56571 0 4.63077 0.0129513 4.69147 0.0381135C4.75217 0.0632756 4.80731 0.100155 4.85375 0.146643L6.85375 2.14664C6.94757 2.24046 7.00028 2.36771 7.00028 2.50039C7.00028 2.63308 6.94757 2.76032 6.85375 2.85414C6.75993 2.94796 6.63268 3.00067 6.5 3.00067C6.36732 3.00067 6.24007 2.94796 6.14625 2.85414L5 1.70727ZM9 7.22664V5.50039C9 5.23518 8.89464 4.98082 8.70711 4.79329C8.51957 4.60575 8.26522 4.50039 8 4.50039H7C6.86739 4.50039 6.74021 4.55307 6.64645 4.64684C6.55268 4.74061 6.5 4.86778 6.5 5.00039C6.5 5.133 6.55268 5.26018 6.64645 5.35395C6.74021 5.44771 6.86739 5.50039 7 5.50039H8V10.5254C7.70182 10.2208 7.30273 10.0355 6.87762 10.0043C6.45251 9.97305 6.03062 10.0981 5.69115 10.3558C5.35167 10.6136 5.11795 10.9864 5.03384 11.4043C4.94974 11.8222 5.02105 12.2564 5.23438 12.6254L5.24938 12.6491L6.64062 14.7741C6.71323 14.8851 6.82694 14.9627 6.95675 14.9898C7.08656 15.017 7.22184 14.9914 7.33281 14.9188C7.44379 14.8462 7.52138 14.7325 7.54851 14.6027C7.57565 14.4729 7.5501 14.3376 7.4775 14.2266L6.09437 12.1148C5.99633 11.9416 5.97107 11.7366 6.02417 11.5449C6.07727 11.3531 6.20436 11.1903 6.3775 11.0923C6.55064 10.9942 6.75563 10.969 6.94739 11.0221C7.13914 11.0752 7.30195 11.2023 7.4 11.3754C7.40437 11.3835 7.40938 11.3916 7.41438 11.3991L8.08187 12.4185C8.14088 12.5085 8.22733 12.577 8.3284 12.614C8.42947 12.6509 8.53975 12.6542 8.64287 12.6235C8.74598 12.5928 8.83643 12.5296 8.90077 12.4433C8.96511 12.3571 8.99991 12.2524 9 12.1448V8.50039C9.47128 8.93665 9.84768 9.46527 10.1057 10.0533C10.3638 10.6414 10.498 11.2763 10.5 11.9185V14.5004C10.5 14.633 10.5527 14.7602 10.6464 14.8539C10.7402 14.9477 10.8674 15.0004 11 15.0004C11.1326 15.0004 11.2598 14.9477 11.3536 14.8539C11.4473 14.7602 11.5 14.633 11.5 14.5004V11.916C11.4972 10.9898 11.2679 10.0783 10.8322 9.26097C10.3964 8.44363 9.76744 7.74524 9 7.22664ZM2 4.50039H1C0.734784 4.50039 0.48043 4.60575 0.292893 4.79329C0.105357 4.98082 0 5.23518 0 5.50039V12.0004C0 12.133 0.0526785 12.2602 0.146447 12.3539C0.240215 12.4477 0.367392 12.5004 0.5 12.5004C0.632608 12.5004 0.759785 12.4477 0.853553 12.3539C0.947321 12.2602 1 12.133 1 12.0004V5.50039H2C2.13261 5.50039 2.25979 5.44771 2.35355 5.35395C2.44732 5.26018 2.5 5.133 2.5 5.00039C2.5 4.86778 2.44732 4.74061 2.35355 4.64684C2.25979 4.55307 2.13261 4.50039 2 4.50039Z" fill="white"/>
</svg>
