<svg width="16" height="17" viewBox="0 0 16 17" fill="none" xmlns="http://www.w3.org/2000/svg">
<path d="M9.99992 8.50065C9.99992 9.60522 9.10449 10.5007 7.99992 10.5007C6.89535 10.5007 5.99992 9.60522 5.99992 8.50065C5.99992 7.39608 6.89535 6.50065 7.99992 6.50065C9.10449 6.50065 9.99992 7.39608 9.99992 8.50065Z" fill="#2B45DA"/>
<path d="M14.5962 8.20251C13.1574 5.32488 10.602 3.83398 7.99992 3.83398C5.39783 3.83398 2.84245 5.32488 1.40363 8.20251C1.30979 8.39019 1.30979 8.61111 1.40363 8.79879C2.84245 11.6764 5.39783 13.1673 7.99992 13.1673C10.602 13.1673 13.1574 11.6764 14.5962 8.79879C14.69 8.61111 14.69 8.39019 14.5962 8.20251ZM7.99992 11.834C6.02073 11.834 3.99862 10.7535 2.75302 8.50065C3.99862 6.24784 6.02073 5.16732 7.99992 5.16732C9.97911 5.16732 12.0012 6.24784 13.2468 8.50065C12.0012 10.7535 9.97911 11.834 7.99992 11.834Z" fill="#2B45DA"/>
</svg>
