<svg width="32" height="32" viewBox="0 0 32 32" fill="none" xmlns="http://www.w3.org/2000/svg">
<path d="M0 16C0 7.16344 7.16344 0 16 0C24.8366 0 32 7.16344 32 16C32 24.8366 24.8366 32 16 32C7.16344 32 0 24.8366 0 16Z" fill="#2B45DA"/>
<path d="M16 10.6673C13.0545 10.6673 10.6667 13.0551 10.6667 16.0007C10.6667 18.9462 13.0545 21.334 16 21.334C18.9455 21.334 21.3333 18.9462 21.3333 16.0007C21.3333 13.0551 18.9455 10.6673 16 10.6673ZM9.33333 16.0007C9.33333 12.3188 12.3181 9.33398 16 9.33398C19.6819 9.33398 22.6667 12.3188 22.6667 16.0007C22.6667 19.6826 19.6819 22.6673 16 22.6673C12.3181 22.6673 9.33333 19.6826 9.33333 16.0007Z" fill="white"/>
<path d="M16 17.334C15.6318 17.334 15.3333 17.0355 15.3333 16.6673L15.3333 12.6673C15.3333 12.2991 15.6318 12.0007 16 12.0007C16.3682 12.0007 16.6667 12.2991 16.6667 12.6673L16.6667 16.6673C16.6667 17.0355 16.3682 17.334 16 17.334Z" fill="white"/>
<path d="M15 19.0007C15 18.4484 15.4477 18.0007 16 18.0007C16.5523 18.0007 17 18.4484 17 19.0007C17 19.5529 16.5523 20.0007 16 20.0007C15.4477 20.0007 15 19.5529 15 19.0007Z" fill="white"/>
</svg>
