<svg width="14" height="16" viewBox="0 0 14 16" fill="none" xmlns="http://www.w3.org/2000/svg">
<path d="M3.11111 0.5C6.67511 0.5 10.2391 0.5 13.9111 0.5C13.8612 1.00756 13.8612 1.00756 13.8083 1.24231C13.7965 1.29583 13.7847 1.34935 13.7725 1.4045C13.7596 1.46198 13.7466 1.51946 13.7333 1.57869C13.7049 1.70748 13.6767 1.83633 13.6486 1.9652C13.6374 2.01645 13.6374 2.01645 13.626 2.06874C13.5307 2.50858 13.4435 2.95014 13.3556 3.39157C13.2351 3.9948 13.1128 4.59749 12.9833 5.1988C12.9712 5.25552 12.959 5.31225 12.9464 5.37069C12.892 5.62186 12.8351 5.87199 12.7729 6.12129C12.7247 6.31463 12.6837 6.50731 12.65 6.70388C12.5653 7.18391 12.4593 7.65946 12.3556 8.13554C12.4184 8.13582 12.4184 8.13582 12.4826 8.13611C12.6388 8.13733 12.7948 8.13955 12.951 8.14244C13.0184 8.14348 13.0859 8.14413 13.1534 8.14438C13.2506 8.1448 13.3477 8.14665 13.445 8.14878C13.5326 8.14984 13.5326 8.14984 13.622 8.15093C13.8144 8.18773 13.8823 8.25021 14 8.40663C13.9965 8.58524 13.9645 8.664 13.8667 8.81325C13.8373 8.81325 13.808 8.81325 13.7778 8.81325C13.7778 8.84307 13.7778 8.87289 13.7778 8.90361C13.2796 9.24945 12.6742 9.2946 12.0889 9.31024C12.0844 9.34007 12.0799 9.36991 12.0752 9.40065C12.009 9.82161 11.9233 10.2375 11.8361 10.6544C11.8203 10.7304 11.8045 10.8065 11.7887 10.8825C11.6819 11.3952 11.5721 11.9072 11.461 12.4189C11.3668 12.8535 11.278 13.2888 11.1934 13.7254C11.1209 14.0983 11.0446 14.4703 10.9667 14.8421C10.9552 14.8973 10.9437 14.9525 10.9318 15.0094C10.9211 15.0604 10.9104 15.1113 10.8993 15.1638C10.8898 15.2091 10.8803 15.2545 10.8704 15.3012C10.8444 15.4096 10.8444 15.4096 10.8 15.5C7.236 15.5 3.672 15.5 0 15.5C0.0499371 15.0431 0.0499371 15.0431 0.102431 14.8221C0.113635 14.7741 0.124839 14.7262 0.136382 14.6767C0.154123 14.602 0.154123 14.602 0.172222 14.5258C0.26108 14.1438 0.342396 13.7633 0.410243 13.3769C0.449963 13.1587 0.500483 12.9431 0.55 12.727C0.632267 12.3669 0.705261 12.006 0.772222 11.6427C0.854245 11.1997 0.943681 10.7586 1.03889 10.3183C1.0454 10.2882 1.0519 10.2581 1.05861 10.2271C1.13246 9.8861 1.20782 9.54545 1.28437 9.20505C1.31182 9.08293 1.33925 8.9608 1.36667 8.83867C1.3733 8.80915 1.37994 8.77963 1.38678 8.74921C1.47481 8.35669 1.5529 7.96475 1.61736 7.56761C1.65028 7.37925 1.69642 7.19618 1.74375 7.01114C1.78542 6.83889 1.82164 6.66607 1.85556 6.49209C1.86177 6.46198 1.86799 6.43187 1.87439 6.40084C1.92539 6.1311 1.88635 5.92297 1.8 5.66755C1.54435 4.81818 1.71012 3.88252 1.88056 3.03294C1.88893 2.98906 1.89731 2.94518 1.90594 2.89997C1.96283 2.62891 2.03727 2.38223 2.22222 2.17169C2.35466 2.08455 2.45494 2.07101 2.61111 2.07568C2.64663 2.07649 2.68215 2.07731 2.71875 2.07815C2.74556 2.0792 2.77237 2.08025 2.8 2.08133C2.80756 2.03153 2.81512 1.98173 2.82292 1.93043C2.83378 1.86118 2.84466 1.79194 2.85556 1.7227C2.86286 1.67417 2.86286 1.67417 2.87031 1.62466C2.93104 1.2429 3.02316 0.880003 3.11111 0.5Z" fill="#EBA800"/>
<path d="M3.24049 2.42736C3.33375 2.44072 3.42696 2.4544 3.52013 2.46838C3.62245 2.483 3.72476 2.49762 3.82708 2.51224C3.98636 2.53542 4.14561 2.55874 4.30486 2.58216C4.4599 2.60484 4.61501 2.62699 4.77013 2.6491C4.84125 2.65983 4.84125 2.65983 4.91381 2.67077C5.22031 2.71425 5.49401 2.75165 5.76805 2.57675C5.98369 2.46034 6.18209 2.4622 6.42222 2.46821C6.46506 2.46897 6.5079 2.46973 6.55205 2.47051C7.19038 2.48855 7.66258 2.54855 8.13333 3.03014C8.18592 3.08256 8.18592 3.08256 8.23958 3.13603C8.30702 3.20413 8.37388 3.27284 8.4401 3.34217C8.52348 3.42678 8.60893 3.50219 8.7 3.57796C9.0205 3.85628 9.32173 4.20975 9.55555 4.56629C9.55644 4.65476 9.55522 4.74327 9.55277 4.83172C9.57515 5.21799 9.78041 5.40305 10.0277 5.67125C10.5341 6.24812 10.6969 6.97343 10.6667 7.72894C10.4272 7.70914 10.2589 7.57199 10.0667 7.43808C10.0314 7.41392 9.99611 7.38976 9.95976 7.36486C9.69388 7.18091 9.43991 6.98525 9.19097 6.77838C8.94168 6.6007 8.69601 6.56714 8.39999 6.59942C8.02708 6.68512 7.76602 6.8659 7.51128 7.15147C7.45718 7.23072 7.45718 7.23072 7.47725 7.32831C7.50566 7.4177 7.50566 7.4177 7.58333 7.47479C7.64444 7.54821 7.64444 7.54821 7.64722 7.66681C7.57876 7.88786 7.45161 8.10568 7.28888 8.2711C5.84323 8.39025 4.25369 8.09845 3.11111 7.14159C2.49511 6.59394 2.05611 5.77909 1.9906 4.94342C1.95679 4.22412 2.05331 3.57221 2.24444 2.88048C2.25339 2.84776 2.26234 2.81503 2.27156 2.78132C2.42354 2.26258 2.78482 2.36993 3.24049 2.42736Z" fill="#172E4C"/>
<path d="M2.26667 6.64458C2.42101 6.76279 2.53942 6.88043 2.65556 7.03709C3.55742 8.20455 4.82192 8.59601 6.22222 8.76807C6.42928 8.79009 6.63637 8.80556 6.84444 8.81325C6.89191 9.01133 6.8991 9.2062 6.9 9.40907C6.90018 9.44316 6.90035 9.47725 6.90053 9.51237C6.89815 9.74545 6.86838 9.94326 6.78038 10.1607C6.7371 10.3321 6.76604 10.4644 6.84676 10.6206C6.90943 10.7257 6.97505 10.8285 7.04167 10.9311C7.07722 10.9883 7.07722 10.9883 7.1135 11.0466C7.22484 11.2249 7.33773 11.3976 7.46753 11.5626C7.84607 12.0627 7.85228 12.5773 7.79679 13.1931C7.75536 13.4943 7.651 13.7413 7.51111 14.009C7.35832 14.3429 7.30136 14.6341 7.28889 15.003C6.8657 14.6887 6.46559 14.3456 6.06681 14.0003C5.95933 13.9073 5.85196 13.8172 5.73854 13.7318C5.70749 13.704 5.67644 13.6762 5.64444 13.6476C5.64444 13.6029 5.64444 13.5581 5.64444 13.512C5.72393 13.4476 5.72393 13.4476 5.8342 13.3818C5.8737 13.358 5.91321 13.3342 5.95391 13.3096C5.9957 13.2851 6.03749 13.2606 6.08055 13.2353C6.12183 13.2104 6.16311 13.1856 6.20564 13.16C6.51127 12.9774 6.51127 12.9774 6.66667 12.9247C6.4946 12.7379 6.30989 12.5949 6.10278 12.4503C6.03481 12.4022 5.96687 12.3541 5.89896 12.3059C5.86414 12.2813 5.82932 12.2566 5.79345 12.2312C5.59362 12.0886 5.3966 11.9421 5.1992 11.7961C5.01514 11.6604 4.82973 11.5272 4.64236 11.3963C4.6015 11.3677 4.56064 11.3391 4.51854 11.3096C4.439 11.254 4.35925 11.1987 4.27929 11.1437C4.22552 11.1061 4.22552 11.1061 4.17066 11.0677C4.13874 11.0456 4.10683 11.0236 4.07395 11.0009C4 10.9367 4 10.9367 3.95556 10.8012C3.54953 10.8954 3.15925 11.0223 2.76667 11.1627C2.71002 11.1827 2.65336 11.2027 2.5967 11.2227C2.37355 11.3017 2.15139 11.3804 1.93264 11.4713C1.7736 11.5255 1.6757 11.533 1.51111 11.51C1.43704 11.4996 1.36296 11.4893 1.28889 11.4789C1.31122 11.1227 1.3693 10.7867 1.45 10.4398C1.55914 9.95642 1.65862 9.47204 1.75278 8.9855C1.85788 8.44406 1.96754 7.90384 2.08333 7.36465C2.09006 7.33314 2.09678 7.30164 2.10371 7.26918C2.12259 7.1809 2.14167 7.09267 2.16076 7.00444C2.17158 6.9544 2.18241 6.90437 2.19355 6.85282C2.22222 6.73494 2.22222 6.73494 2.26667 6.64458Z" fill="#182F4C"/>
<path d="M3.77778 11.1627C3.93936 11.2258 4.06456 11.2934 4.20278 11.3998C4.45321 11.5892 4.70795 11.7717 4.96389 11.9533C5.00434 11.982 5.04479 12.0108 5.08647 12.0404C5.18354 12.1093 5.28065 12.1782 5.37778 12.247C5.32607 12.6625 5.25547 13.0726 5.17778 13.4838C5.16828 13.5343 5.15879 13.5847 5.14901 13.6367C5.10902 13.846 5.06832 14.0538 5.01458 14.26C4.95644 14.5059 4.99559 14.6934 5.11111 14.9126C5.11111 14.9574 5.11111 15.0021 5.11111 15.0482C4.48044 15.0482 3.84978 15.0482 3.2 15.0482C2.9894 14.62 2.9894 14.62 3.02222 14.4157C3.0449 14.3565 3.06952 14.2981 3.09531 14.2402C3.11136 14.2041 3.12741 14.1679 3.14394 14.1307C3.18297 14.046 3.22303 13.9618 3.26387 13.8779C3.71033 12.9588 3.81492 12.1814 3.77778 11.1627Z" fill="#192F4C"/>
<path d="M9.1026 7.01716C9.22792 7.09912 9.34713 7.18669 9.46667 7.27713C9.90666 7.58296 10.3552 7.82991 10.8444 8.0452C10.8858 8.06378 10.9272 8.08236 10.9698 8.1015C11.0898 8.15065 11.2089 8.18973 11.3333 8.22592C11.3613 8.23408 11.3893 8.24223 11.4182 8.25063C12.137 8.45011 12.8619 8.42548 13.6 8.40664C13.622 8.4961 13.622 8.4961 13.6444 8.58737C13.2211 9.01771 12.4673 9.03894 11.9056 9.05329C10.3986 9.02457 9.10346 8.42857 7.95556 7.45785C7.97982 7.2786 7.99232 7.23941 8.12778 7.1077C8.40494 6.90484 8.78861 6.87554 9.1026 7.01716Z" fill="#1B304C"/>
<path d="M9.15555 8.63253C9.31582 8.69705 9.47465 8.76453 9.63332 8.83302C9.97877 8.97891 10.2929 9.09497 10.6667 9.12952C10.6801 9.3934 10.65 9.57896 10.5361 9.81852C10.5224 9.84894 10.5086 9.87936 10.4945 9.91071C10.4646 9.97677 10.4344 10.0427 10.404 10.1085C9.89438 11.071 9.89438 11.071 9.73332 12.1114C9.80465 12.2527 9.80465 12.2527 9.90867 12.2701C9.94064 12.2727 9.97261 12.2753 10.0055 12.278C10.0624 12.2827 10.1192 12.2874 10.1778 12.2922C10.1814 12.3731 10.184 12.454 10.1861 12.535C10.1884 12.6026 10.1884 12.6026 10.1908 12.6716C10.1865 12.7104 10.1822 12.7492 10.1778 12.7892C9.97796 12.9246 9.78965 12.9111 9.55554 12.8795C9.30427 12.781 9.14852 12.6245 9.02221 12.3825C8.92633 12.1473 8.91627 11.9358 8.91666 11.6851C8.91663 11.643 8.91661 11.601 8.91658 11.5577C8.92598 10.9121 9.0039 10.2308 9.13575 9.59869C9.15571 9.49008 9.16062 9.39147 9.15988 9.28112C9.15974 9.24312 9.1596 9.20512 9.15945 9.16596C9.15908 9.12691 9.15871 9.08786 9.15832 9.04763C9.15812 9.0077 9.15792 8.96778 9.15771 8.92665C9.15719 8.82861 9.1564 8.73057 9.15555 8.63253Z" fill="#1B304C"/>
<path d="M7.11111 4.4759C7.30169 4.48943 7.39559 4.616 7.52222 4.74981C7.56187 4.79134 7.60151 4.83286 7.64236 4.87565C7.67238 4.90774 7.7024 4.93983 7.73333 4.97289C7.60655 5.04394 7.49763 5.08005 7.35469 5.10173C7.2975 5.11046 7.2975 5.11046 7.23915 5.11938C7.19965 5.12508 7.16014 5.13079 7.11944 5.13667C7.08046 5.14273 7.04147 5.14879 7.0013 5.15503C6.78356 5.18748 6.57557 5.20551 6.35556 5.19879C6.55465 4.92661 6.80702 4.73145 7.06667 4.52108C7.08133 4.50617 7.096 4.49127 7.11111 4.4759Z" fill="#E1A106"/>
</svg>
