<svg width="16" height="17" viewBox="0 0 16 17" fill="none" xmlns="http://www.w3.org/2000/svg">
<path d="M8 11.7L11.2 8.5L8 5.3L6.88 6.42L8.16 7.7H4.8V9.3H8.16L6.88 10.58L8 11.7ZM8 16.5C6.89333 16.5 5.85333 16.2899 4.88 15.8696C3.90667 15.4493 3.06 14.8795 2.34 14.16C1.62 13.4405 1.05013 12.5939 0.630401 11.62C0.210668 10.6461 0.000534346 9.60613 1.01266e-06 8.5C-0.00053232 7.39386 0.209601 6.35387 0.630401 5.38C1.0512 4.40613 1.62107 3.55947 2.34 2.84C3.05893 2.12053 3.9056 1.55067 4.88 1.1304C5.8544 0.710133 6.8944 0.5 8 0.5C9.10559 0.5 10.1456 0.710133 11.12 1.1304C12.0944 1.55067 12.9411 2.12053 13.66 2.84C14.3789 3.55947 14.9491 4.40613 15.3704 5.38C15.7917 6.35387 16.0016 7.39386 16 8.5C15.9984 9.60613 15.7883 10.6461 15.3696 11.62C14.9509 12.5939 14.3811 13.4405 13.66 14.16C12.9389 14.8795 12.0923 15.4496 11.12 15.8704C10.1477 16.2912 9.10773 16.5011 8 16.5Z" fill="white"/>
</svg>
