<svg width="16" height="16" viewBox="0 0 16 16" fill="none" xmlns="http://www.w3.org/2000/svg">
<path d="M8 7.98393e-06C9.83219 -0.00258464 11.6093 0.626324 13.032 1.78081C13.1218 1.85357 13.1948 1.94495 13.246 2.04863C13.2971 2.15232 13.3252 2.26586 13.3282 2.38143C13.3313 2.497 13.3092 2.61186 13.2636 2.7181C13.218 2.82433 13.1499 2.91942 13.064 2.99681L11.856 4.08641C11.7188 4.20998 11.543 4.28227 11.3586 4.29102C11.1741 4.29977 10.9923 4.24443 10.844 4.13441C10.0306 3.53657 9.04941 3.21039 8.03997 3.20226C7.03053 3.19413 6.04422 3.50446 5.22129 4.08912C4.39836 4.67377 3.7807 5.503 3.45615 6.45888C3.1316 7.41476 3.11667 8.44863 3.41349 9.41348C3.71032 10.3783 4.30378 11.225 5.10949 11.8332C5.9152 12.4414 6.89214 12.78 7.90139 12.8011C8.91065 12.8221 9.90084 12.5244 10.7312 11.9502C11.5615 11.3761 12.1897 10.5549 12.5264 9.6032L12.5272 9.6H9.5992C9.40339 9.59978 9.21446 9.52775 9.0682 9.39756C8.92194 9.26738 8.82851 9.08807 8.8056 8.8936L8.8 8.8V7.2C8.8 6.98783 8.88429 6.78435 9.03432 6.63432C9.18434 6.48429 9.38783 6.4 9.6 6.4H15.156C15.3529 6.39999 15.543 6.47263 15.6897 6.604C15.8364 6.73537 15.9295 6.91625 15.9512 7.112C15.9832 7.40534 15.9995 7.70134 16 8C16 12.4184 12.4184 16 8 16C3.5816 16 0 12.4184 0 8C0 3.58161 3.5816 7.98393e-06 8 7.98393e-06Z" fill="#111C57"/>
</svg>
