<svg width="16" height="17" viewBox="0 0 16 17" fill="none" xmlns="http://www.w3.org/2000/svg">
<path d="M8.00004 3.16732C5.05452 3.16732 2.66671 5.55513 2.66671 8.50065C2.66671 11.4462 5.05452 13.834 8.00004 13.834C10.9456 13.834 13.3334 11.4462 13.3334 8.50065C13.3334 5.55513 10.9456 3.16732 8.00004 3.16732ZM1.33337 8.50065C1.33337 4.81875 4.31814 1.83398 8.00004 1.83398C11.6819 1.83398 14.6667 4.81875 14.6667 8.50065C14.6667 12.1826 11.6819 15.1673 8.00004 15.1673C4.31814 15.1673 1.33337 12.1826 1.33337 8.50065Z" fill="#D5DAF8"/>
<path d="M8.00004 7.16732C8.36823 7.16732 8.66671 7.46579 8.66671 7.83398V11.834C8.66671 12.2022 8.36823 12.5007 8.00004 12.5007C7.63185 12.5007 7.33337 12.2022 7.33337 11.834V7.83398C7.33337 7.46579 7.63185 7.16732 8.00004 7.16732Z" fill="#D5DAF8"/>
<path d="M9.00004 5.50065C9.00004 6.05294 8.55233 6.50065 8.00004 6.50065C7.44776 6.50065 7.00004 6.05294 7.00004 5.50065C7.00004 4.94837 7.44776 4.50065 8.00004 4.50065C8.55233 4.50065 9.00004 4.94837 9.00004 5.50065Z" fill="#D5DAF8"/>
</svg>
