<svg width="390" height="227" viewBox="0 0 390 227" fill="none" xmlns="http://www.w3.org/2000/svg">
<g clip-path="url(#clip0_37_237)">
<path d="M-86.7945 279.859L-86.5252 279.186C-87.1619 280.692 -87.7945 282.193 -88.4312 283.699C-87.6312 281.891 -86.6435 280.239 -85.4599 278.655C-86.4435 279.929 -87.4312 281.206 -88.4148 282.479C-86.819 280.475 -85.011 278.737 -82.9867 277.166C-84.26 278.149 -85.5375 279.137 -86.8109 280.12C-84.4641 278.382 -81.9663 276.954 -79.2971 275.77C-80.8031 276.407 -82.3051 277.04 -83.8111 277.676C-79.9787 276.068 -75.9953 275.081 -71.8813 274.522C-73.5547 274.746 -75.2321 274.971 -76.9055 275.195C-71.3181 274.534 -65.7348 274.697 -60.1597 275.391C-61.8331 275.166 -63.5105 274.942 -65.1839 274.718C-55.6254 276.019 -46.3893 278.753 -37.5042 282.467C-39.0103 281.83 -40.5122 281.198 -42.0182 280.561C-9.24915 294.517 16.1898 320.956 48.8936 335.002C66.9739 342.768 86.7153 347.791 106.547 345.922C118.015 344.845 128.304 342.217 138.752 337.361C146.099 333.945 152.69 329.073 158.849 323.853C171.423 313.191 180.917 299.337 190.916 286.376C189.932 287.649 188.945 288.927 187.961 290.2C195.299 280.712 203.005 271.412 212.527 264.022C211.253 265.005 209.976 265.993 208.702 266.976C213.376 263.414 218.387 260.402 223.775 258.048C222.269 258.684 220.767 259.317 219.261 259.954C225.199 257.456 231.395 255.832 237.77 254.934C236.096 255.159 234.419 255.383 232.746 255.608C240.635 254.583 248.577 254.673 256.462 255.681C254.789 255.457 253.111 255.232 251.438 255.008C261.286 256.354 270.792 259.17 279.954 262.994C278.448 262.357 276.946 261.725 275.44 261.088C286.325 265.716 296.565 271.649 306.467 278.096C316.29 284.495 325.788 291.502 336.346 296.684C348.966 302.879 362.585 307.074 376.78 306.837C391.522 306.592 405.949 301.765 416.757 291.526C422.544 286.046 426.854 278.962 429.254 271.384C431.503 264.271 431.686 255.371 428.882 248.377C426.984 243.635 424.772 239.758 420.197 237.085C416.144 234.714 410.178 233.711 405.635 235.18C401.092 236.649 396.652 239.493 394.342 243.863C392.122 248.066 390.587 253.804 392.436 258.423C393.02 259.884 393.415 261.337 393.648 262.892C393.424 261.219 393.199 259.541 392.975 257.868C393.146 259.411 393.146 260.904 392.987 262.447C393.211 260.774 393.436 259.097 393.66 257.424C393.387 259.443 392.856 261.361 392.105 263.255C392.742 261.749 393.375 260.247 394.011 258.742C393.077 260.917 391.897 262.92 390.489 264.822C391.473 263.549 392.46 262.271 393.444 260.998C391.775 263.145 389.897 265.042 387.783 266.748C389.057 265.764 390.334 264.777 391.607 263.794C389.167 265.675 386.559 267.189 383.722 268.392C385.228 267.756 386.73 267.123 388.236 266.487C384.73 267.882 381.122 268.796 377.384 269.315C379.057 269.09 380.735 268.866 382.408 268.641C377.768 269.2 373.143 269.131 368.507 268.572C370.18 268.796 371.858 269.021 373.531 269.245C367.442 268.417 361.577 266.756 355.9 264.418C357.406 265.054 358.908 265.687 360.414 266.324C345.786 260.113 333.253 250.16 319.833 241.827C305.352 232.837 289.631 225.015 273.049 220.795C255.528 216.335 236.713 215.657 219.122 220.154C203.948 224.035 190.467 232.331 179.125 242.994C168.338 253.139 159.763 265.422 150.76 277.101C151.743 275.828 152.731 274.55 153.715 273.277C146.393 282.748 138.724 292.057 129.239 299.459C130.512 298.475 131.79 297.488 133.063 296.504C128.276 300.177 123.129 303.262 117.582 305.649C119.088 305.013 120.59 304.38 122.096 303.744C116.456 306.082 110.583 307.612 104.539 308.457C106.212 308.232 107.889 308.008 109.563 307.784C102.02 308.751 94.4413 308.641 86.9031 307.69C88.5764 307.914 90.2538 308.139 91.9272 308.363C82.4136 307.078 73.1653 304.495 64.3006 300.818C65.8066 301.454 67.3085 302.087 68.8146 302.724C44.7224 292.534 24.7035 275.554 2.77446 261.684C-21.2564 246.483 -50.3931 233.833 -79.4318 237.734C-88.1985 238.913 -96.8714 241.358 -104.312 246.348C-107.899 248.756 -111.625 251.539 -114.45 254.881C-118.645 259.847 -120.861 263.802 -123.257 269.808C-124.959 274.069 -123.567 280.586 -121.351 284.368C-119.058 288.29 -114.564 292.028 -110.058 293.052C-105.222 294.154 -99.7895 293.917 -95.496 291.147C-91.1044 288.319 -88.7373 284.675 -86.8109 279.855L-86.7945 279.859Z" fill="#F58E51"/>
<path d="M-86.7945 204.342L-86.5252 203.668C-87.1619 205.174 -87.7945 206.676 -88.4312 208.182C-87.6312 206.374 -86.6435 204.721 -85.4599 203.138C-86.4435 204.411 -87.4312 205.688 -88.4148 206.962C-86.819 204.958 -85.011 203.219 -82.9867 201.648C-84.26 202.632 -85.5375 203.619 -86.8109 204.603C-84.4641 202.864 -81.9663 201.436 -79.2971 200.253C-80.8031 200.889 -82.3051 201.522 -83.8111 202.159C-79.9787 200.551 -75.9953 199.563 -71.8813 199.004C-73.5547 199.229 -75.2321 199.453 -76.9055 199.677C-71.3181 199.016 -65.7348 199.18 -60.1597 199.873C-61.8331 199.649 -63.5105 199.424 -65.1839 199.2C-55.6254 200.502 -46.3893 203.236 -37.5042 206.949C-39.0103 206.313 -40.5122 205.68 -42.0182 205.044C-9.24915 219 16.1898 245.439 48.8936 259.484C66.9739 267.25 86.7153 272.273 106.547 270.404C118.015 269.327 128.304 266.699 138.752 261.843C146.099 258.427 152.69 253.555 158.849 248.336C171.423 237.673 180.917 223.819 190.916 210.859C189.932 212.132 188.945 213.409 187.961 214.682C195.299 205.195 203.005 195.895 212.527 188.504C211.253 189.488 209.976 190.475 208.702 191.459C213.376 187.896 218.387 184.885 223.775 182.53C222.269 183.167 220.767 183.799 219.261 184.436C225.199 181.939 231.395 180.314 237.77 179.417C236.096 179.641 234.419 179.866 232.746 180.09C240.635 179.066 248.577 179.156 256.462 180.163C254.789 179.939 253.111 179.715 251.438 179.49C261.286 180.837 270.792 183.652 279.954 187.476C278.448 186.84 276.946 186.207 275.44 185.57C286.325 190.198 296.565 196.131 306.467 202.579C316.29 208.977 325.788 215.984 336.346 221.166C348.966 227.361 362.585 231.556 376.78 231.319C391.522 231.074 405.949 226.247 416.757 216.008C422.544 210.528 426.854 203.444 429.254 195.866C431.503 188.753 431.686 179.853 428.882 172.859C426.984 168.117 424.772 164.241 420.197 161.568C416.144 159.197 410.178 158.193 405.635 159.662C401.064 161.143 396.652 163.975 394.342 168.346C392.122 172.549 390.587 178.286 392.436 182.906C393.02 184.367 393.415 185.819 393.648 187.374C393.424 185.701 393.199 184.024 392.975 182.351C393.146 183.893 393.146 185.387 392.987 186.929C393.211 185.256 393.436 183.579 393.66 181.906C393.387 183.926 392.856 185.844 392.105 187.737C392.742 186.231 393.375 184.73 394.011 183.224C393.077 185.399 391.897 187.403 390.489 189.304C391.473 188.031 392.46 186.754 393.444 185.481C391.775 187.627 389.897 189.525 387.783 191.23C389.057 190.247 390.334 189.259 391.607 188.276C389.167 190.157 386.559 191.671 383.722 192.875C385.228 192.238 386.73 191.606 388.236 190.969C384.73 192.365 381.122 193.279 377.384 193.797C379.057 193.573 380.735 193.348 382.408 193.124C377.768 193.683 373.143 193.614 368.507 193.054C370.18 193.279 371.858 193.503 373.531 193.728C367.442 192.899 361.577 191.239 355.9 188.9C357.406 189.537 358.908 190.169 360.414 190.806C345.786 184.595 333.253 174.642 319.833 166.309C305.352 157.32 289.631 149.497 273.049 145.277C255.528 140.817 236.713 140.14 219.122 144.637C203.948 148.518 190.467 156.814 179.125 167.477C168.338 177.621 159.763 189.904 150.76 201.583C151.743 200.31 152.731 199.033 153.715 197.76C146.393 207.231 138.724 216.539 129.239 223.941C130.512 222.958 131.79 221.97 133.063 220.987C128.276 224.66 123.129 227.745 117.582 230.132C119.088 229.495 120.59 228.863 122.096 228.226C116.456 230.564 110.583 232.095 104.539 232.939C106.212 232.715 107.889 232.49 109.563 232.266C102.02 233.233 94.4413 233.123 86.9031 232.172C88.5764 232.397 90.2538 232.621 91.9272 232.845C82.4136 231.56 73.1653 228.977 64.3006 225.3C65.8066 225.937 67.3085 226.569 68.8146 227.206C44.7224 217.016 24.7035 200.037 2.77446 186.166C-21.2564 170.966 -50.3931 158.315 -79.4318 162.216C-88.1985 163.396 -96.8714 165.84 -104.312 170.831C-107.899 173.239 -111.625 176.022 -114.45 179.364C-118.645 184.33 -120.861 188.284 -123.257 194.291C-124.959 198.551 -123.567 205.068 -121.351 208.851C-119.058 212.772 -114.564 216.51 -110.058 217.535C-105.222 218.636 -99.7895 218.4 -95.496 215.629C-91.1044 212.801 -88.7373 209.157 -86.8109 204.338L-86.7945 204.342Z" fill="#D9186A"/>
<path d="M-79.7665 241.448L-79.4971 240.774C-80.1338 242.28 -80.7664 243.782 -81.4031 245.288C-80.6032 243.48 -79.6155 241.827 -78.4319 240.244C-79.4155 241.517 -80.4032 242.794 -81.3868 244.067C-79.791 242.064 -77.9829 240.325 -75.9586 238.754C-77.232 239.738 -78.5094 240.725 -79.7828 241.709C-77.436 239.97 -74.9383 238.542 -72.2691 237.359C-73.7751 237.995 -75.277 238.628 -76.783 239.264C-72.9506 237.657 -68.9673 236.669 -64.8533 236.11C-66.5266 236.335 -68.2041 236.559 -69.8774 236.783C-64.2901 236.122 -58.7068 236.286 -53.1317 236.979C-54.805 236.755 -56.4825 236.53 -58.1558 236.306C-48.5973 237.608 -39.3613 240.342 -30.4762 244.055C-31.9822 243.419 -33.4841 242.786 -34.9901 242.15C-2.22109 256.106 23.2179 282.545 55.9216 296.59C74.0019 304.356 93.7434 309.379 113.575 307.51C125.043 306.433 135.332 303.805 145.78 298.949C153.127 295.533 159.718 290.661 165.877 285.442C178.451 274.779 187.945 260.925 197.944 247.965C196.96 249.238 195.973 250.515 194.989 251.788C202.327 242.301 210.033 233.001 219.555 225.61C218.281 226.594 217.004 227.581 215.73 228.565C220.404 225.002 225.415 221.991 230.803 219.636C229.297 220.273 227.795 220.905 226.289 221.542C232.227 219.045 238.423 217.42 244.798 216.523C243.124 216.747 241.447 216.972 239.774 217.196C247.663 216.172 255.605 216.261 263.49 217.269C261.817 217.045 260.139 216.821 258.466 216.596C268.314 217.943 277.82 220.758 286.982 224.582C285.476 223.945 283.974 223.313 282.468 222.676C293.353 227.304 303.593 233.237 313.495 239.685C323.319 246.083 332.816 253.09 343.374 258.272C355.994 264.467 369.613 268.662 383.808 268.425C398.55 268.18 412.977 263.353 423.785 253.114C429.572 247.634 433.882 240.55 436.282 232.972C438.531 225.859 438.714 216.959 435.91 209.965C434.013 205.223 431.8 201.346 427.225 198.674C423.173 196.303 417.206 195.299 412.663 196.768C408.121 198.237 403.68 201.081 401.37 205.452C399.15 209.655 397.615 215.392 399.464 220.012C400.048 221.473 400.444 222.925 400.676 224.48C400.452 222.807 400.227 221.13 400.003 219.457C400.174 220.999 400.174 222.493 400.015 224.035C400.24 222.362 400.464 220.685 400.688 219.012C400.415 221.032 399.884 222.95 399.133 224.843C399.77 223.337 400.403 221.836 401.039 220.33C400.105 222.505 398.925 224.509 397.517 226.41C398.501 225.137 399.489 223.86 400.472 222.587C398.803 224.733 396.925 226.631 394.811 228.336C396.085 227.353 397.362 226.365 398.636 225.382C396.195 227.263 393.587 228.777 390.75 229.981C392.256 229.344 393.758 228.712 395.264 228.075C391.758 229.471 388.151 230.385 384.412 230.903C386.085 230.679 387.763 230.454 389.436 230.23C384.796 230.789 380.172 230.719 375.535 230.16C377.209 230.385 378.886 230.609 380.559 230.834C374.47 230.005 368.605 228.344 362.928 226.006C364.434 226.643 365.936 227.275 367.442 227.912C352.814 221.701 340.281 211.748 326.861 203.415C312.381 194.426 296.659 186.603 280.077 182.383C262.556 177.923 243.741 177.246 226.15 181.743C210.976 185.624 197.495 193.92 186.153 204.582C175.366 214.727 166.791 227.01 157.788 238.689C158.771 237.416 159.759 236.139 160.743 234.865C153.421 244.337 145.752 253.645 136.267 261.047C137.54 260.064 138.818 259.076 140.091 258.093C135.304 261.766 130.157 264.851 124.611 267.238C126.117 266.601 127.618 265.969 129.124 265.332C123.484 267.67 117.611 269.201 111.567 270.045C113.24 269.821 114.917 269.596 116.591 269.372C109.048 270.339 101.469 270.229 93.9311 269.278C95.6044 269.503 97.2819 269.727 98.9552 269.951C89.4417 268.666 80.1933 266.083 71.3287 262.406C72.8347 263.043 74.3366 263.675 75.8426 264.312C51.7505 254.122 31.7315 237.143 9.80252 223.272C-14.2284 208.072 -43.365 195.421 -72.4038 199.322C-81.1705 200.502 -89.8433 202.946 -97.2836 207.937C-100.871 210.344 -104.597 213.127 -107.422 216.47C-111.617 221.436 -113.833 225.39 -116.229 231.397C-117.931 235.657 -116.539 242.174 -114.323 245.957C-112.029 249.878 -107.536 253.616 -103.03 254.641C-98.1937 255.742 -92.7615 255.506 -88.4679 252.735C-84.0764 249.907 -81.7092 246.263 -79.7828 241.444L-79.7665 241.448Z" fill="#FFE9E1"/>
<path d="M-86.7945 170.329L-86.5252 169.656C-87.1619 171.161 -87.7945 172.663 -88.4312 174.169C-87.6312 172.361 -86.6435 170.709 -85.4599 169.125C-86.4435 170.398 -87.4312 171.676 -88.4148 172.949C-86.819 170.945 -85.011 169.207 -82.9867 167.636C-84.26 168.619 -85.5375 169.607 -86.8109 170.59C-84.4641 168.852 -81.9663 167.424 -79.2971 166.24C-80.8031 166.877 -82.3051 167.509 -83.8111 168.146C-79.9787 166.538 -75.9953 165.55 -71.8813 164.991C-73.5547 165.216 -75.2321 165.44 -76.9055 165.665C-71.3181 165.004 -65.7348 165.167 -60.1597 165.861C-61.8331 165.636 -63.5105 165.412 -65.1839 165.187C-55.6254 166.489 -46.3893 169.223 -37.5042 172.937C-39.0103 172.3 -40.5122 171.667 -42.0182 171.031C-9.24915 184.987 16.1898 211.426 48.8936 225.472C66.9739 233.237 86.7153 238.261 106.547 236.392C118.015 235.314 128.304 232.686 138.752 227.83C146.099 224.415 152.69 219.542 158.849 214.323C171.423 203.66 180.917 189.806 190.916 176.846C189.932 178.119 188.945 179.396 187.961 180.67C195.299 171.182 203.005 161.882 212.527 154.492C211.253 155.475 209.976 156.463 208.702 157.446C213.376 153.884 218.387 150.872 223.775 148.518C222.269 149.154 220.767 149.787 219.261 150.423C225.199 147.926 231.395 146.302 237.77 145.404C236.096 145.628 234.419 145.853 232.746 146.077C240.635 145.053 248.577 145.143 256.462 146.151C254.789 145.926 253.111 145.702 251.438 145.477C261.286 146.824 270.792 149.64 279.954 153.463C278.448 152.827 276.946 152.194 275.44 151.558C286.325 156.185 296.565 162.119 306.467 168.566C316.29 174.965 325.788 181.971 336.346 187.154C348.966 193.348 362.585 197.543 376.78 197.307C391.522 197.062 405.949 192.234 416.757 181.996C422.544 176.515 426.854 169.431 429.254 161.853C431.503 154.741 431.686 145.841 428.882 138.846C426.984 134.105 424.772 130.228 420.197 127.555C416.144 125.184 410.178 124.18 405.635 125.649C401.064 127.131 396.652 129.963 394.342 134.333C392.122 138.536 390.587 144.274 392.436 148.893C393.02 150.354 393.415 151.807 393.648 153.361C393.424 151.688 393.199 150.011 392.975 148.338C393.146 149.881 393.146 151.374 392.987 152.917C393.211 151.244 393.436 149.566 393.66 147.893C393.387 149.913 392.856 151.831 392.105 153.725C392.742 152.219 393.375 150.717 394.011 149.211C393.077 151.386 391.897 153.39 390.489 155.292C391.473 154.018 392.46 152.741 393.444 151.468C391.775 153.614 389.897 155.512 387.783 157.218C389.057 156.234 390.334 155.247 391.607 154.263C389.167 156.144 386.559 157.658 383.722 158.862C385.228 158.226 386.73 157.593 388.236 156.957C384.73 158.352 381.122 159.266 377.384 159.784C379.057 159.56 380.735 159.336 382.408 159.111C377.768 159.67 373.143 159.601 368.507 159.042C370.18 159.266 371.858 159.491 373.531 159.715C367.442 158.887 361.577 157.226 355.9 154.888C357.406 155.524 358.908 156.157 360.414 156.793C345.786 150.582 333.253 140.63 319.833 132.297C305.352 123.307 289.631 115.484 273.049 111.265C255.528 106.805 236.713 106.127 219.122 110.624C203.948 114.505 190.467 122.801 179.125 133.464C168.338 143.608 159.763 155.891 150.76 167.57C151.743 166.297 152.731 165.02 153.715 163.747C146.393 173.218 138.724 182.526 129.239 189.929C130.512 188.945 131.79 187.958 133.063 186.974C128.276 190.647 123.129 193.732 117.582 196.119C119.088 195.483 120.59 194.85 122.096 194.213C116.456 196.552 110.583 198.082 104.539 198.927C106.212 198.702 107.889 198.478 109.563 198.253C102.02 199.22 94.4413 199.11 86.9031 198.159C88.5764 198.384 90.2538 198.608 91.9272 198.833C82.4136 197.547 73.1653 194.964 64.3006 191.288C65.8066 191.924 67.3085 192.557 68.8146 193.193C44.7224 183.004 24.7035 166.024 2.77446 152.154C-21.2564 136.953 -50.3931 124.303 -79.4318 128.204C-88.1985 129.383 -96.8714 131.827 -104.312 136.818C-107.899 139.226 -111.625 142.009 -114.45 145.351C-118.645 150.317 -120.861 154.271 -123.257 160.278C-124.959 164.538 -123.567 171.055 -121.351 174.838C-119.058 178.76 -114.564 182.498 -110.058 183.522C-105.222 184.624 -99.7895 184.387 -95.496 181.616C-91.1044 178.788 -88.7373 175.144 -86.8109 170.325L-86.7945 170.329Z" fill="#F58E51"/>
<path d="M-86.7945 96.7741L-86.5252 96.1007C-87.1619 97.6065 -87.7945 99.1082 -88.4312 100.614C-87.6312 98.8063 -86.6435 97.1536 -85.4599 95.5703C-86.4435 96.8434 -87.4312 98.1207 -88.4148 99.3939C-86.819 97.3903 -85.011 95.6519 -82.9867 94.0808C-84.26 95.0643 -85.5375 96.0518 -86.8109 97.0352C-84.4641 95.2968 -81.9663 93.8686 -79.2971 92.6852C-80.8031 93.3218 -82.3051 93.9543 -83.8111 94.5909C-79.9787 92.9831 -75.9953 91.9956 -71.8813 91.4365C-73.5547 91.6609 -75.2321 91.8854 -76.9055 92.1098C-71.3181 91.4487 -65.7348 91.612 -60.1597 92.3057C-61.8331 92.0812 -63.5105 91.8568 -65.1839 91.6324C-55.6254 92.9341 -46.3893 95.6682 -37.5042 99.3816C-39.0103 98.745 -40.5122 98.1125 -42.0182 97.4759C-9.24915 111.432 16.1898 137.871 48.8936 151.917C66.9739 159.682 86.7153 164.706 106.547 162.837C118.015 161.759 128.304 159.131 138.752 154.275C146.099 150.86 152.69 145.987 158.849 140.768C171.423 130.105 180.917 116.251 190.916 103.291C189.932 104.564 188.945 105.841 187.961 107.115C195.299 97.6269 203.005 88.327 212.527 80.9368C211.253 81.9203 209.976 82.9078 208.702 83.8913C213.376 80.3288 218.387 77.3172 223.775 74.9627C222.269 75.5993 220.767 76.2318 219.261 76.8684C225.199 74.371 231.395 72.7468 237.77 71.8491C236.096 72.0735 234.419 72.298 232.746 72.5224C240.635 71.4981 248.577 71.5879 256.462 72.5958C254.789 72.3714 253.111 72.147 251.438 71.9225C261.286 73.2692 270.792 76.0849 279.954 79.9085C278.448 79.2719 276.946 78.6394 275.44 78.0028C286.325 82.6303 296.565 88.5637 306.467 95.0112C316.29 101.41 325.788 108.416 336.346 113.599C348.966 119.793 362.585 123.988 376.78 123.752C391.522 123.507 405.949 118.679 416.757 108.441C422.544 102.96 426.854 95.8763 429.254 88.2984C431.503 81.1857 431.686 72.2857 428.882 65.2914C426.984 60.5496 424.772 56.6729 420.197 54C416.144 51.6292 410.178 50.6253 405.635 52.0944C401.092 53.5634 396.652 56.4077 394.342 60.7781C392.122 64.9812 390.587 70.7187 392.436 75.3381C393.02 76.799 393.415 78.2517 393.648 79.8065C393.424 78.1334 393.199 76.4562 392.975 74.7831C393.146 76.3256 393.146 77.8192 392.987 79.3617C393.211 77.6886 393.436 76.0114 393.66 74.3383C393.387 76.3583 392.856 78.2762 392.105 80.1697C392.742 78.6639 393.375 77.1622 394.011 75.6564C393.077 77.8314 391.897 79.835 390.489 81.7366C391.473 80.4635 392.46 79.1862 393.444 77.913C391.775 80.0595 389.897 81.957 387.783 83.6627C389.057 82.6793 390.334 81.6918 391.607 80.7083C389.167 82.5895 386.559 84.1035 383.722 85.3073C385.228 84.6707 386.73 84.0382 388.236 83.4016C384.73 84.7972 381.122 85.7113 377.384 86.2295C379.057 86.0051 380.735 85.7806 382.408 85.5562C377.768 86.1153 373.143 86.0459 368.507 85.4868C370.18 85.7113 371.858 85.9357 373.531 86.1601C367.442 85.3318 361.577 83.6709 355.9 81.3327C357.406 81.9692 358.908 82.6018 360.414 83.2383C345.786 77.0275 333.253 67.0746 319.833 58.7418C305.352 49.752 289.631 41.9293 273.049 37.7098C255.528 33.2496 236.713 32.5722 219.122 37.0692C203.948 40.9499 190.467 49.246 179.125 59.9089C168.338 70.0536 159.763 82.3365 150.76 94.0155C151.743 92.7423 152.731 91.4651 153.715 90.1919C146.393 99.6632 138.724 108.971 129.239 116.374C130.512 115.39 131.79 114.403 133.063 113.419C128.276 117.092 123.129 120.177 117.582 122.564C119.088 121.928 120.59 121.295 122.096 120.658C116.456 122.997 110.583 124.527 104.539 125.372C106.212 125.147 107.889 124.923 109.563 124.698C102.02 125.666 94.4413 125.555 86.9031 124.605C88.5764 124.829 90.2538 125.053 91.9272 125.278C82.4136 123.992 73.1653 121.409 64.3006 117.733C65.8066 118.369 67.3085 119.002 68.8146 119.638C44.7224 109.449 24.7035 92.4689 2.77446 78.5986C-21.2564 63.3979 -50.3931 50.7477 -79.4318 54.6489C-88.1985 55.8282 -96.8714 58.2725 -104.312 63.2633C-107.899 65.6709 -111.625 68.4539 -114.45 71.796C-118.645 76.7623 -120.861 80.7165 -123.257 86.7233C-124.959 90.9835 -123.567 97.5004 -121.351 101.283C-119.058 105.205 -114.564 108.943 -110.058 109.967C-105.222 111.069 -99.7895 110.832 -95.496 108.061C-91.1044 105.233 -88.7373 101.589 -86.8109 96.77L-86.7945 96.7741Z" fill="#D9186A"/>
<path d="M-79.7665 133.88L-79.4971 133.207C-80.1338 134.712 -80.7664 136.214 -81.4031 137.72C-80.6032 135.912 -79.6155 134.26 -78.4319 132.676C-79.4155 133.949 -80.4032 135.227 -81.3868 136.5C-79.791 134.496 -77.9829 132.758 -75.9586 131.187C-77.232 132.17 -78.5094 133.158 -79.7828 134.141C-77.436 132.403 -74.9383 130.975 -72.2691 129.791C-73.7751 130.428 -75.277 131.06 -76.783 131.697C-72.9506 130.089 -68.9673 129.102 -64.8533 128.542C-66.5266 128.767 -68.2041 128.991 -69.8774 129.216C-64.2901 128.555 -58.7068 128.718 -53.1317 129.412C-54.805 129.187 -56.4825 128.963 -58.1558 128.738C-48.5973 130.04 -39.3613 132.774 -30.4762 136.488C-31.9822 135.851 -33.4841 135.218 -34.9901 134.582C-2.22109 148.538 23.2179 174.977 55.9216 189.023C74.0019 196.788 93.7434 201.812 113.575 199.943C125.043 198.865 135.332 196.237 145.78 191.381C153.127 187.966 159.718 183.093 165.877 177.874C178.451 167.211 187.945 153.357 197.944 140.397C196.96 141.67 195.973 142.947 194.989 144.221C202.327 134.733 210.033 125.433 219.555 118.043C218.281 119.026 217.004 120.014 215.73 120.997C220.404 117.435 225.415 114.423 230.803 112.069C229.297 112.705 227.795 113.338 226.289 113.974C232.227 111.477 238.423 109.853 244.798 108.955C243.124 109.179 241.447 109.404 239.774 109.628C247.663 108.604 255.605 108.694 263.49 109.702C261.817 109.477 260.139 109.253 258.466 109.028C268.314 110.375 277.82 113.191 286.982 117.014C285.476 116.378 283.974 115.745 282.468 115.109C293.353 119.736 303.593 125.67 313.495 132.117C323.319 138.516 332.816 145.522 343.374 150.705C355.994 156.899 369.613 161.094 383.808 160.858C398.55 160.613 412.977 155.785 423.785 145.547C429.572 140.066 433.882 132.982 436.282 125.404C438.531 118.292 438.714 109.392 435.91 102.397C434.013 97.6555 431.8 93.7789 427.225 91.106C423.173 88.7351 417.206 87.7312 412.663 89.2003C408.121 90.6694 403.68 93.5136 401.37 97.8841C399.15 102.087 397.615 107.825 399.464 112.444C400.048 113.905 400.444 115.358 400.676 116.912C400.452 115.239 400.227 113.562 400.003 111.889C400.174 113.432 400.174 114.925 400.015 116.468C400.24 114.795 400.464 113.117 400.688 111.444C400.415 113.464 399.884 115.382 399.133 117.276C399.77 115.77 400.403 114.268 401.039 112.762C400.105 114.937 398.925 116.941 397.517 118.843C398.501 117.569 399.489 116.292 400.472 115.019C398.803 117.165 396.925 119.063 394.811 120.769C396.085 119.785 397.362 118.798 398.636 117.814C396.195 119.695 393.587 121.209 390.75 122.413C392.256 121.777 393.758 121.144 395.264 120.508C391.758 121.903 388.151 122.817 384.412 123.335C386.085 123.111 387.763 122.887 389.436 122.662C384.796 123.221 380.172 123.152 375.535 122.593C377.209 122.817 378.886 123.042 380.559 123.266C374.47 122.438 368.605 120.777 362.928 118.439C364.434 119.075 365.936 119.708 367.442 120.344C352.814 114.133 340.281 104.181 326.861 95.8478C312.381 86.858 296.659 79.0353 280.077 74.8158C262.556 70.3556 243.741 69.6782 226.15 74.1751C210.976 78.0559 197.495 86.352 186.153 97.0149C175.366 107.16 166.791 119.442 157.788 131.121C158.771 129.848 159.759 128.571 160.743 127.298C153.421 136.769 145.752 146.077 136.267 153.48C137.54 152.496 138.818 151.509 140.091 150.525C135.304 154.198 130.157 157.283 124.611 159.67C126.117 159.034 127.618 158.401 129.124 157.764C123.484 160.103 117.611 161.633 111.567 162.478C113.24 162.253 114.917 162.029 116.591 161.804C109.048 162.771 101.469 162.661 93.9311 161.71C95.6044 161.935 97.2819 162.159 98.9552 162.384C89.4417 161.098 80.1933 158.515 71.3287 154.839C72.8347 155.475 74.3366 156.108 75.8426 156.744C51.7505 146.555 31.7315 129.575 9.80252 115.705C-14.2284 100.504 -43.365 87.8537 -72.4038 91.7548C-81.1705 92.9342 -89.8433 95.3785 -97.2836 100.369C-100.871 102.777 -104.597 105.56 -107.422 108.902C-111.617 113.868 -113.833 117.822 -116.229 123.829C-117.931 128.09 -116.539 134.606 -114.323 138.389C-112.029 142.311 -107.536 146.049 -103.03 147.073C-98.1937 148.175 -92.7615 147.938 -88.4679 145.167C-84.0764 142.339 -81.7092 138.695 -79.7828 133.876L-79.7665 133.88Z" fill="#FFE9E1"/>
<path d="M-86.7945 62.7614L-86.5252 62.0881C-87.1619 63.5938 -87.7945 65.0955 -88.4312 66.6013C-87.6312 64.7936 -86.6435 63.1409 -85.4599 61.5576C-86.4435 62.8307 -87.4312 64.108 -88.4148 65.3812C-86.819 63.3776 -85.011 61.6392 -82.9867 60.0681C-84.26 61.0516 -85.5375 62.0391 -86.8109 63.0225C-84.4641 61.2842 -81.9663 59.8559 -79.2971 58.6725C-80.8031 59.3091 -82.3051 59.9416 -83.8111 60.5782C-79.9787 58.9704 -75.9953 57.9829 -71.8813 57.4238C-73.5547 57.6482 -75.2321 57.8727 -76.9055 58.0971C-71.3181 57.436 -65.7348 57.5993 -60.1597 58.293C-61.8331 58.0686 -63.5105 57.8441 -65.1839 57.6197C-55.6254 58.9214 -46.3893 61.6555 -37.5042 65.3689C-39.0103 64.7324 -40.5122 64.0999 -42.0182 63.4633C-9.24915 77.4193 16.1898 103.858 48.8936 117.904C66.9739 125.67 86.7153 130.693 106.547 128.824C118.015 127.747 128.304 125.119 138.752 120.263C146.099 116.847 152.69 111.975 158.849 106.756C171.423 96.0926 180.917 82.2386 190.916 69.2783C189.932 70.5515 188.945 71.8287 187.961 73.1019C195.299 63.6142 203.005 54.3143 212.527 46.9241C211.253 47.9076 209.976 48.8951 208.702 49.8786C213.376 46.3161 218.387 43.3045 223.775 40.95C222.269 41.5866 220.767 42.2191 219.261 42.8557C225.199 40.3583 231.395 38.7341 237.77 37.8364C236.096 38.0608 234.419 38.2853 232.746 38.5097C240.635 37.4854 248.577 37.5752 256.462 38.5832C254.789 38.3587 253.111 38.1343 251.438 37.9098C261.286 39.2565 270.792 42.0722 279.954 45.8958C278.448 45.2592 276.946 44.6267 275.44 43.9901C286.325 48.6176 296.565 54.551 306.467 60.9985C316.29 67.3971 325.788 74.4036 336.346 79.5862C348.966 85.7807 362.585 89.9756 376.78 89.739C391.522 89.4941 405.949 84.6666 416.757 74.4281C422.544 68.9477 426.854 61.8636 429.254 54.2857C431.503 47.1731 431.686 38.273 428.882 31.2787C426.984 26.5369 424.772 22.6602 420.197 19.9873C416.144 17.6165 410.178 16.6126 405.635 18.0817C401.092 19.5507 396.652 22.395 394.342 26.7654C392.122 30.9685 390.587 36.706 392.436 41.3254C393.02 42.7863 393.415 44.239 393.648 45.7938C393.424 44.1207 393.199 42.4435 392.975 40.7704C393.146 42.3129 393.146 43.8065 392.987 45.349C393.211 43.6759 393.436 41.9987 393.66 40.3256C393.387 42.3456 392.856 44.2635 392.105 46.157C392.742 44.6512 393.375 43.1495 394.011 41.6437C393.077 43.8187 391.897 45.8223 390.489 47.7239C391.473 46.4508 392.46 45.1735 393.444 43.9003C391.775 46.0468 389.897 47.9443 387.783 49.65C389.057 48.6666 390.334 47.6791 391.607 46.6956C389.167 48.5768 386.559 50.0908 383.722 51.2946C385.228 50.658 386.73 50.0255 388.236 49.3889C384.73 50.7845 381.122 51.6986 377.384 52.2168C379.057 51.9924 380.735 51.7679 382.408 51.5435C377.768 52.1026 373.143 52.0332 368.507 51.4741C370.18 51.6986 371.858 51.923 373.531 52.1474C367.442 51.3191 361.577 49.6582 355.9 47.32C357.406 47.9566 358.908 48.5891 360.414 49.2257C345.786 43.0148 333.253 33.062 319.833 24.7291C305.352 15.7393 289.631 7.9166 273.049 3.69714C255.528 -0.763075 236.713 -1.44047 219.122 3.05647C203.948 6.93723 190.467 15.2333 179.125 25.8962C168.338 36.0409 159.763 48.3238 150.76 60.0028C151.743 58.7296 152.731 57.4524 153.715 56.1792C146.393 65.6505 138.724 74.9586 129.239 82.361C130.512 81.3776 131.79 80.3901 133.063 79.4066C128.276 83.0792 123.129 86.1643 117.582 88.5515C119.088 87.9149 120.59 87.2824 122.096 86.6458C116.456 88.984 110.583 90.5143 104.539 91.359C106.212 91.1346 107.889 90.9101 109.563 90.6857C102.02 91.6528 94.4413 91.5426 86.9031 90.5918C88.5764 90.8163 90.2538 91.0407 91.9272 91.2652C82.4136 89.9797 73.1653 87.3966 64.3006 83.7199C65.8066 84.3565 67.3085 84.989 68.8146 85.6256C44.7224 75.4361 24.7035 58.4562 2.77446 44.5859C-21.2564 29.3852 -50.3931 16.735 -79.4318 20.6362C-88.1985 21.8155 -96.8714 24.2599 -104.312 29.2506C-107.899 31.6582 -111.625 34.4412 -114.45 37.7833C-118.645 42.7496 -120.861 46.7038 -123.257 52.7106C-124.959 56.9708 -123.567 63.4877 -121.351 67.2706C-119.058 71.1921 -114.564 74.9301 -110.058 75.9543C-105.222 77.0561 -99.7895 76.8194 -95.496 74.0486C-91.1044 71.2207 -88.7373 67.5766 -86.8109 62.7573L-86.7945 62.7614Z" fill="#F58E51"/>
</g>
<defs>
<clipPath id="clip0_37_237">
<rect width="562" height="525" fill="white" transform="translate(-124)"/>
</clipPath>
</defs>
</svg>
