<svg width="12" height="10" viewBox="0 0 12 10" fill="none" xmlns="http://www.w3.org/2000/svg">
<path d="M0 0.833333C0 0.373096 0.335786 0 0.75 0H11.25C11.6642 0 12 0.373096 12 0.833333C12 1.29357 11.6642 1.66667 11.25 1.66667H0.75C0.335786 1.66667 0 1.29357 0 0.833333ZM0 5C0 4.53976 0.335786 4.16667 0.75 4.16667H11.25C11.6642 4.16667 12 4.53976 12 5C12 5.46024 11.6642 5.83333 11.25 5.83333H0.75C0.335786 5.83333 0 5.46024 0 5ZM0 9.16667C0 8.70643 0.335786 8.33333 0.75 8.33333H11.25C11.6642 8.33333 12 8.70643 12 9.16667C12 9.6269 11.6642 10 11.25 10H0.75C0.335786 10 0 9.6269 0 9.16667Z" fill="#0D0D0D"/>
</svg>
