<svg width="19" height="19" viewBox="0 0 19 19" fill="none" xmlns="http://www.w3.org/2000/svg">
<g clip-path="url(#clip0_559_2303)">
<path d="M0 6C0 2.68629 2.68629 0 6 0H13C16.3137 0 19 2.68629 19 6V13C19 16.3137 16.3137 19 13 19H6C2.68629 19 0 16.3137 0 13V6Z" fill="#FBE8F0"/>
<path d="M3.16666 5.54167C3.16666 5.10444 3.5211 4.75 3.95832 4.75H15.0417C15.4789 4.75 15.8333 5.10444 15.8333 5.54167C15.8333 5.97889 15.4789 6.33333 15.0417 6.33333H3.95832C3.5211 6.33333 3.16666 5.97889 3.16666 5.54167ZM4.74999 9.5C4.74999 9.06277 5.10443 8.70833 5.54166 8.70833H13.4583C13.8955 8.70833 14.25 9.06277 14.25 9.5C14.25 9.93723 13.8955 10.2917 13.4583 10.2917H5.54166C5.10443 10.2917 4.74999 9.93723 4.74999 9.5ZM6.33332 13.4583C6.33332 13.0211 6.68776 12.6667 7.12499 12.6667H11.875C12.3122 12.6667 12.6667 13.0211 12.6667 13.4583C12.6667 13.8956 12.3122 14.25 11.875 14.25H7.12499C6.68776 14.25 6.33332 13.8956 6.33332 13.4583Z" fill="#E14688"/>
</g>
<defs>
<clipPath id="clip0_559_2303">
<path d="M0 6C0 2.68629 2.68629 0 6 0H13C16.3137 0 19 2.68629 19 6V13C19 16.3137 16.3137 19 13 19H6C2.68629 19 0 16.3137 0 13V6Z" fill="white"/>
</clipPath>
</defs>
</svg>
