<svg width="16" height="17" viewBox="0 0 16 17" fill="none" xmlns="http://www.w3.org/2000/svg">
<path d="M8.52892 2.02851C8.78927 1.76816 9.21138 1.76816 9.47173 2.02851L11.4717 4.02851C11.7321 4.28886 11.7321 4.71097 11.4717 4.97132L9.47173 6.97132C9.21138 7.23167 8.78927 7.23167 8.52892 6.97132C8.26857 6.71097 8.26857 6.28886 8.52892 6.02851L9.39085 5.16659H8.33366C5.96852 5.16659 4.00033 7.13478 4.00033 9.49992C4.00033 11.8651 5.96852 13.8333 8.33366 13.8333C10.6988 13.8333 12.667 11.8651 12.667 9.49992C12.667 9.13173 12.9655 8.83325 13.3337 8.83325C13.7018 8.83325 14.0003 9.13173 14.0003 9.49992C14.0003 12.6014 11.4352 15.1666 8.33366 15.1666C5.23214 15.1666 2.66699 12.6014 2.66699 9.49992C2.66699 6.3984 5.23214 3.83325 8.33366 3.83325H9.39085L8.52892 2.97132C8.26857 2.71097 8.26857 2.28886 8.52892 2.02851Z" fill="#D1D4DC"/>
</svg>
