<svg width="24" height="24" viewBox="0 0 24 24" fill="none" xmlns="http://www.w3.org/2000/svg">
<path fill-rule="evenodd" clip-rule="evenodd" d="M22.7952 6.318C22.566 6.40023 22.3182 6.41569 22.0806 6.36258C21.843 6.30947 21.6253 6.18997 21.4529 6.018L20.5067 5.07L13.3118 12.2649C13.1924 12.3843 13.0506 12.4791 12.8946 12.5438C12.7385 12.6084 12.5713 12.6417 12.4024 12.6417C12.2335 12.6417 12.0662 12.6084 11.9102 12.5438C11.7541 12.4791 11.6123 12.3843 11.4929 12.2649L8.74837 9.52029L2.21009 16.0586C2.09143 16.1813 1.94951 16.2792 1.79261 16.3465C1.63572 16.4138 1.46699 16.4492 1.29628 16.4506C1.12556 16.452 0.956274 16.4194 0.798295 16.3547C0.640317 16.2899 0.49681 16.1944 0.376148 16.0736C0.255487 15.9529 0.160086 15.8093 0.0955141 15.6512C0.0309417 15.4932 -0.0015095 15.3239 5.39174e-05 15.1532C0.00161733 14.9824 0.0371641 14.8137 0.10462 14.6569C0.172076 14.5001 0.27009 14.3583 0.392944 14.2397L7.83637 6.79114C7.95577 6.67167 8.09754 6.57689 8.25359 6.51222C8.40963 6.44756 8.57689 6.41427 8.7458 6.41427C8.91471 6.41427 9.08197 6.44756 9.23801 6.51222C9.39406 6.57689 9.53583 6.67167 9.65523 6.79114L12.4015 9.53743L18.6878 3.25114L17.7415 2.30486C17.5692 2.13275 17.4493 1.91524 17.3958 1.67765C17.3423 1.44005 17.3574 1.19214 17.4393 0.962783C17.5212 0.733421 17.6665 0.532038 17.8584 0.382077C18.0503 0.232116 18.2809 0.139744 18.5232 0.115714C20.0884 -0.0385714 20.9884 -0.0385714 22.4952 0.115714C22.7893 0.146121 23.0639 0.276945 23.2728 0.486152C23.4817 0.695359 23.6121 0.970166 23.6421 1.26429C23.7981 2.76943 23.7964 3.67114 23.6421 5.23457C23.618 5.47681 23.5256 5.70722 23.3757 5.89902C23.2258 6.09081 23.0245 6.2361 22.7952 6.318ZM20.0129 8.90314C20.2072 8.71479 20.4559 8.59251 20.7237 8.55373C20.9915 8.51495 21.2647 8.56163 21.5044 8.68714L23.1707 9.56143C23.3863 9.6749 23.5652 9.8473 23.6866 10.0585C23.808 10.2698 23.8669 10.5112 23.8564 10.7546L23.3832 22.0483C23.3695 22.38 23.228 22.6935 22.9884 22.9233C22.7487 23.153 22.4295 23.2811 22.0975 23.2809H18.7169C18.6033 23.2809 18.4943 23.2357 18.4139 23.1553C18.3335 23.075 18.2884 22.966 18.2884 22.8523V10.7563C18.2883 10.6987 18.2997 10.6418 18.3221 10.5887C18.3445 10.5357 18.3773 10.4878 18.4187 10.4477L20.0129 8.90314ZM16.1455 22.8523C16.1455 22.966 16.1004 23.075 16.02 23.1553C15.9396 23.2357 15.8306 23.2809 15.7169 23.2809H9.28837C9.17471 23.2809 9.0657 23.2357 8.98533 23.1553C8.90495 23.075 8.8598 22.966 8.8598 22.8523V12.8854C8.8598 12.8511 8.88552 12.8237 8.9198 12.8271C9.19923 12.8409 9.47351 12.9471 9.6998 13.1443L12.5198 15.6197C12.6007 15.6909 12.7054 15.729 12.8131 15.7264C12.9207 15.7239 13.0235 15.6809 13.1009 15.606L15.4187 13.3569C15.4792 13.2982 15.5556 13.2587 15.6385 13.2433C15.7213 13.2278 15.8069 13.2372 15.8844 13.2701C15.962 13.303 16.0281 13.3581 16.0746 13.4284C16.121 13.4987 16.1457 13.5812 16.1455 13.6654V22.8523ZM5.98152 15.2014L0.650087 20.646C0.414128 20.8862 0.281793 21.2093 0.281515 21.546V21.9951C0.281515 22.7049 0.857515 23.2809 1.56723 23.2809H6.28837C6.40204 23.2809 6.51105 23.2357 6.59142 23.1553C6.67179 23.075 6.71694 22.966 6.71694 22.8523V15.5014C6.71711 15.4161 6.69181 15.3327 6.6443 15.2619C6.59679 15.1911 6.52922 15.136 6.45025 15.1038C6.37127 15.0716 6.28448 15.0637 6.20097 15.081C6.11747 15.0984 6.04106 15.1404 5.98152 15.2014Z" fill="#EE6430"/>
</svg>
