<svg width="24" height="20" viewBox="0 0 24 20" fill="none" xmlns="http://www.w3.org/2000/svg">
<path fill-rule="evenodd" clip-rule="evenodd" d="M8.25 14.8933H6.6285L6.1155 16.4323L5.8785 17.1433H3V12.6733C3.744 12.8668 4.8195 13.0183 6.375 13.0183C6.67337 13.0183 6.95952 12.8998 7.1705 12.6888C7.38147 12.4779 7.5 12.1917 7.5 11.8933C7.5 11.595 7.38147 11.3088 7.1705 11.0979C6.95952 10.8869 6.67337 10.7683 6.375 10.7683C4.7655 10.7683 3.852 10.5883 3.378 10.4428C3.27404 10.4109 3.17189 10.3734 3.072 10.3303C3.18692 9.83558 3.43907 9.38326 3.7995 9.02535C3.9095 8.91535 4.0165 8.80135 4.1205 8.68335C6.408 9.33285 9.225 9.64335 12 9.64335C14.775 9.64335 17.592 9.33285 19.8795 8.68335C19.9825 8.80235 20.0895 8.91635 20.2005 9.02535C20.562 9.38835 20.8125 9.84135 20.928 10.3303C20.862 10.3623 20.76 10.3998 20.622 10.4428C20.148 10.5883 19.2345 10.7683 17.625 10.7683C17.3266 10.7683 17.0405 10.8869 16.8295 11.0979C16.6185 11.3088 16.5 11.595 16.5 11.8933C16.5 12.1917 16.6185 12.4779 16.8295 12.6888C17.0405 12.8998 17.3266 13.0183 17.625 13.0183C19.1805 13.0183 20.256 12.8668 21 12.6733V17.1433H18.1215L17.8845 16.4323L17.3715 14.8933H8.25ZM18.636 6.68535C16.716 7.15035 14.376 7.39335 12 7.39335C9.624 7.39335 7.284 7.15035 5.364 6.68535C5.41 6.57335 5.454 6.46035 5.496 6.34635L6.168 4.46085C6.438 3.70335 7.023 3.25185 7.608 3.16635C10.5209 2.75225 13.4776 2.75225 16.3905 3.16635C16.9785 3.25185 17.5605 3.70335 17.8305 4.46085L18.5055 6.34635C18.5455 6.46035 18.589 6.57335 18.636 6.68535ZM16.158 18.3673L15.75 17.1433H8.25L7.842 18.3673C7.74248 18.6662 7.55142 18.9261 7.29593 19.1102C7.04043 19.2944 6.73345 19.3934 6.4185 19.3933H2.25C1.85218 19.3933 1.47064 19.2353 1.18934 18.954C0.908035 18.6727 0.75 18.2912 0.75 17.8933V10.9558C0.75 9.63585 1.275 8.36835 2.208 7.43535C2.44974 7.19429 2.66589 6.92888 2.853 6.64335H1.875C1.57663 6.64335 1.29048 6.52482 1.0795 6.31384C0.868526 6.10286 0.75 5.81672 0.75 5.51835C0.75 5.21998 0.868526 4.93383 1.0795 4.72285C1.29048 4.51187 1.57663 4.39335 1.875 4.39335H3.804L4.05 3.70335C4.5645 2.26335 5.772 1.15935 7.2855 0.940347C10.4127 0.495145 13.5873 0.495145 16.7145 0.940347C18.228 1.15935 19.4355 2.26335 19.95 3.70485L20.196 4.39335H22.125C22.4234 4.39335 22.7095 4.51187 22.9205 4.72285C23.1315 4.93383 23.25 5.21998 23.25 5.51835C23.25 5.81672 23.1315 6.10286 22.9205 6.31384C22.7095 6.52482 22.4234 6.64335 22.125 6.64335H21.1485C21.3355 6.92935 21.55 7.19335 21.792 7.43535C22.7255 8.36916 23.2499 9.63546 23.25 10.9558V17.8933C23.25 18.2912 23.092 18.6727 22.8107 18.954C22.5294 19.2353 22.1478 19.3933 21.75 19.3933H17.58C17.2653 19.3931 16.9587 19.2939 16.7035 19.1098C16.4483 18.9256 16.2574 18.6659 16.158 18.3673Z" fill="#D1D4DC"/>
</svg>
