<svg width="23" height="19" viewBox="0 0 23 19" fill="none" xmlns="http://www.w3.org/2000/svg">
<path fill-rule="evenodd" clip-rule="evenodd" d="M7.5 14.2869H5.8785L5.3655 15.8259L5.1285 16.5369H2.25V12.0669C2.994 12.2604 4.0695 12.4119 5.625 12.4119C5.92337 12.4119 6.20952 12.2934 6.4205 12.0824C6.63147 11.8714 6.75 11.5853 6.75 11.2869C6.75 10.9885 6.63147 10.7024 6.4205 10.4914C6.20952 10.2804 5.92337 10.1619 5.625 10.1619C4.0155 10.1619 3.102 9.9819 2.628 9.8364C2.52404 9.80448 2.42189 9.76692 2.322 9.7239C2.43692 9.22913 2.68907 8.77681 3.0495 8.4189C3.1595 8.3089 3.2665 8.1949 3.3705 8.0769C5.658 8.7264 8.475 9.0369 11.25 9.0369C14.025 9.0369 16.842 8.7264 19.1295 8.0769C19.2325 8.1959 19.3395 8.3099 19.4505 8.4189C19.812 8.7819 20.0625 9.2349 20.178 9.7239C20.112 9.7559 20.01 9.7934 19.872 9.8364C19.398 9.9819 18.4845 10.1619 16.875 10.1619C16.5766 10.1619 16.2905 10.2804 16.0795 10.4914C15.8685 10.7024 15.75 10.9885 15.75 11.2869C15.75 11.5853 15.8685 11.8714 16.0795 12.0824C16.2905 12.2934 16.5766 12.4119 16.875 12.4119C18.4305 12.4119 19.506 12.2604 20.25 12.0669V16.5369H17.3715L17.1345 15.8259L16.6215 14.2869H7.5ZM17.886 6.0789C15.966 6.5439 13.626 6.7869 11.25 6.7869C8.874 6.7869 6.534 6.5439 4.614 6.0789C4.66 5.9669 4.704 5.8539 4.746 5.7399L5.418 3.8544C5.688 3.0969 6.273 2.6454 6.858 2.5599C9.77086 2.14581 12.7276 2.14581 15.6405 2.5599C16.2285 2.6454 16.8105 3.0969 17.0805 3.8544L17.7555 5.7399C17.7955 5.8539 17.839 5.9669 17.886 6.0789ZM15.408 17.7609L15 16.5369H7.5L7.092 17.7609C6.99248 18.0597 6.80142 18.3196 6.54593 18.5038C6.29043 18.6879 5.98345 18.787 5.6685 18.7869H1.5C1.10218 18.7869 0.720644 18.6289 0.43934 18.3476C0.158035 18.0663 0 17.6847 0 17.2869V10.3494C0 9.0294 0.525 7.7619 1.458 6.8289C1.69974 6.58785 1.91589 6.32244 2.103 6.0369H1.125C0.826631 6.0369 0.540483 5.91838 0.329505 5.7074C0.118526 5.49642 0 5.21027 0 4.9119C0 4.61353 0.118526 4.32738 0.329505 4.11641C0.540483 3.90543 0.826631 3.7869 1.125 3.7869H3.054L3.3 3.0969C3.8145 1.6569 5.022 0.552901 6.5355 0.333901C9.66273 -0.1113 12.8373 -0.1113 15.9645 0.333901C17.478 0.552901 18.6855 1.6569 19.2 3.0984L19.446 3.7869H21.375C21.6734 3.7869 21.9595 3.90543 22.1705 4.11641C22.3815 4.32738 22.5 4.61353 22.5 4.9119C22.5 5.21027 22.3815 5.49642 22.1705 5.7074C21.9595 5.91838 21.6734 6.0369 21.375 6.0369H20.3985C20.5855 6.3229 20.8 6.5869 21.042 6.8289C21.9755 7.76271 22.4999 9.02902 22.5 10.3494V17.2869C22.5 17.6847 22.342 18.0663 22.0607 18.3476C21.7794 18.6289 21.3978 18.7869 21 18.7869H16.83C16.5153 18.7867 16.2087 18.6875 15.9535 18.5033C15.6983 18.3192 15.5074 18.0595 15.408 17.7609Z" fill="#D9186A"/>
</svg>
