<svg width="24" height="24" viewBox="0 0 24 24" fill="none" xmlns="http://www.w3.org/2000/svg">
<path d="M12 1.5L3 4.5V13.5C3 18.4711 7.02891 22.5 12 22.5C16.9711 22.5 21 18.4711 21 13.5V4.5L12 1.5ZM19.3125 13.5C19.3125 17.5383 16.0383 20.8125 12 20.8125C7.96172 20.8125 4.6875 17.5383 4.6875 13.5V5.76562L12 3.1875L19.3125 5.76562V13.5Z" fill="#2B45DA"/>
<path d="M8.86875 11.1342C8.79055 11.0556 8.6976 10.9933 8.59524 10.9507C8.49288 10.9082 8.38312 10.8863 8.27227 10.8863C8.16142 10.8863 8.05166 10.9082 7.9493 10.9507C7.84694 10.9933 7.75399 11.0556 7.67579 11.1342C7.59723 11.2124 7.53489 11.3053 7.49235 11.4077C7.44981 11.5101 7.42792 11.6198 7.42792 11.7307C7.42792 11.8415 7.44981 11.9513 7.49235 12.0536C7.53489 12.156 7.59723 12.2489 7.67579 12.3271L10.7086 15.36L10.7578 15.4092C10.8318 15.4833 10.9197 15.5421 11.0164 15.5822C11.1131 15.6223 11.2168 15.643 11.3215 15.643C11.4262 15.643 11.5299 15.6223 11.6266 15.5822C11.7233 15.5421 11.8112 15.4833 11.8852 15.4092L17.1234 10.1709C17.1976 10.0969 17.2563 10.0091 17.2965 9.91234C17.3366 9.81562 17.3572 9.71194 17.3572 9.60723C17.3572 9.50252 17.3366 9.39883 17.2965 9.30211C17.2563 9.20539 17.1976 9.11753 17.1234 9.04356L17.0578 8.97793C16.9838 8.90382 16.896 8.84502 16.7993 8.80491C16.7025 8.76479 16.5989 8.74414 16.4941 8.74414C16.3894 8.74414 16.2858 8.76479 16.189 8.80491C16.0923 8.84502 16.0044 8.90382 15.9305 8.97793L11.3203 13.5857L8.86875 11.1342Z" fill="#2B45DA"/>
</svg>
