<svg width="119" height="47" viewBox="0 0 119 47" fill="none" xmlns="http://www.w3.org/2000/svg">
<path d="M59.5002 46.9996C28.3892 46.9996 3.16883 45.5774 3.16883 43.823C3.16883 42.0687 28.3892 40.6465 59.5002 40.6465C90.6111 40.6465 115.832 42.0687 115.832 43.823C115.832 45.5774 90.6111 46.9996 59.5002 46.9996Z" fill="#F7D1E1"/>
<path d="M63.5502 43.225C59.9098 43.225 56.958 37.5791 56.958 30.6142C56.958 23.6494 59.9098 18.0034 63.5502 18.0034H72.0076V43.225H63.5502Z" fill="#263238"/>
<path d="M72.0367 43.2226C68.396 43.2226 65.4445 37.5765 65.4445 30.6118C65.4445 23.647 68.396 18.001 72.0367 18.001C75.6775 18.001 78.6289 23.647 78.6289 30.6118C78.6289 37.5765 75.6775 43.2226 72.0367 43.2226Z" fill="#263238"/>
<path d="M15.2141 43.225C11.5737 43.225 8.62192 37.5791 8.62192 30.6142C8.62192 23.6494 11.5737 18.0034 15.2141 18.0034H23.6715V43.225H15.2141Z" fill="#263238"/>
<path d="M23.7036 43.2226C20.0628 43.2226 17.1114 37.5765 17.1114 30.6118C17.1114 23.647 20.0628 18.001 23.7036 18.001C27.3444 18.001 30.2958 23.647 30.2958 30.6118C30.2958 37.5765 27.3444 43.2226 23.7036 43.2226Z" fill="#263238"/>
<path d="M106.758 36.873L111.273 35.801C112.819 35.4334 114.117 34.426 114.823 33.0482V33.0426C115.134 32.4421 115.558 31.9033 116.078 31.4571L117.188 30.503C118.475 29.3974 119.138 27.7642 118.975 26.1086L118.365 19.9407C118.156 17.8221 116.633 16.0402 114.524 15.4368L111.299 14.5136L99.6546 13.7139L106.764 36.8701L106.758 36.873Z" fill="#2B45DA"/>
<path d="M96.912 43.225C93.2716 43.225 90.3198 37.5791 90.3198 30.6142C90.3198 23.6494 93.2716 18.0034 96.912 18.0034H105.369V43.225H96.912Z" fill="#263238"/>
<path d="M105.399 43.2226C101.758 43.2226 98.8064 37.5765 98.8064 30.6118C98.8064 23.647 101.758 18.001 105.399 18.001C109.039 18.001 111.991 23.647 111.991 30.6118C111.991 37.5765 109.039 43.2226 105.399 43.2226Z" fill="#263238"/>
<path d="M105.399 40.5789C102.844 40.5789 100.773 36.1163 100.773 30.6115C100.773 25.1066 102.844 20.644 105.399 20.644C107.953 20.644 110.024 25.1066 110.024 30.6115C110.024 36.1163 107.953 40.5789 105.399 40.5789Z" fill="#2B45DA"/>
<path d="M38.509 36.8722L27.1259 12.3017C27.1259 12.3017 44.1599 0.0556641 65.7522 0.0556641C100.776 0.0556641 99.5731 4.61564 111.293 14.5157L106.177 18.0009C97.0745 18.0009 96.3163 31.9362 94.8607 35.8564C94.6341 36.4654 94.0414 36.8722 93.3732 36.8722H38.509Z" fill="#2B45DA"/>
<path d="M48.5762 43.225C44.9358 43.225 41.984 37.5791 41.984 30.6142C41.984 23.6494 44.9358 18.0034 48.5762 18.0034H57.0336V43.225H48.5762Z" fill="#263238"/>
<path d="M57.0654 43.2226C53.4246 43.2226 50.4732 37.5765 50.4732 30.6118C50.4732 23.647 53.4246 18.001 57.0654 18.001C60.7062 18.001 63.6576 23.647 63.6576 30.6118C63.6576 37.5765 60.7062 43.2226 57.0654 43.2226Z" fill="#263238"/>
<path d="M57.0655 40.5789C54.511 40.5789 52.4402 36.1163 52.4402 30.6115C52.4402 25.1066 54.511 20.644 57.0655 20.644C59.62 20.644 61.6908 25.1066 61.6908 30.6115C61.6908 36.1163 59.62 40.5789 57.0655 40.5789Z" fill="#2B45DA"/>
<path d="M45.302 34.8435C46.3508 30.2414 51.3654 18.0151 57.3794 18.0151L63.8932 12.3018H27.1292C24.5812 12.3018 13.2795 13.8115 6.87326 18.001C1.69888 21.3852 1.06842 26.5233 0.315941 34.0297C0.161961 35.5619 1.55071 36.8808 3.30552 36.8808C18.0355 36.8864 35.8655 36.9369 42.356 36.9537C43.7883 36.9565 45.0231 36.0754 45.3049 34.8435H45.302Z" fill="#2B45DA"/>
<path opacity="0.8" d="M29.7844 12.3014H53.7504C54.8748 12.3014 55.9352 11.7738 56.5657 10.873C59.2328 7.0567 63.9539 3.18983 67.4142 1.35742C43.1838 1.35742 29.7844 12.3014 29.7844 12.3014Z" fill="white"/>
<path opacity="0.8" d="M68.007 2.50772C65.0988 4.53936 61.7954 7.68785 59.9389 10.8167C59.5467 11.4761 60.0348 12.3011 60.8221 12.3011H100.091C104.254 12.3011 102.874 2.27761 81.11 1.52557C79.0589 1.35439 74.2767 1.34878 71.6328 1.36C70.3284 1.36562 69.0674 1.7697 68.0099 2.50772H68.007Z" fill="white"/>
<path d="M41.1472 31.4036L28.5613 32.3212C28.1546 32.3521 27.8408 32.6776 27.8408 33.0733V33.9039C27.8408 34.3192 28.1894 34.6587 28.6223 34.6587H41.2082C41.6382 34.6587 41.9897 34.322 41.9897 33.9039V32.1557C41.9897 31.7179 41.6033 31.3699 41.1501 31.4036H41.1472Z" fill="#263238"/>
<path d="M1.13223 31.5807L4.59828 32.2513C4.96144 32.3215 5.22583 32.6302 5.22583 32.9894V33.9014C5.22583 34.3167 4.87719 34.6562 4.4443 34.6562H0.780685C0.312928 34.6562 -0.0502415 34.2605 0.00495958 33.8144L0.19962 32.2317C0.254821 31.7939 0.681899 31.4965 1.12932 31.5807H1.13223Z" fill="#263238"/>
<path opacity="0.8" d="M30.7897 17.263L48.3669 16.438C48.3669 16.438 48.5471 19.4462 42.0333 20.0944C35.5225 20.7426 30.7897 17.263 30.7897 17.263Z" fill="white"/>
<path opacity="0.3" d="M118.362 19.9408C118.313 19.4356 118.188 18.9502 117.999 18.4956L116.808 18.4619C116.808 18.4619 116.752 22.8732 118.475 22.5982C118.525 22.5897 118.568 22.5813 118.618 22.5645L118.359 19.9379L118.362 19.9408Z" fill="black"/>
<path opacity="0.8" d="M8.60176 16.993C7.99455 17.3101 7.4164 17.6441 6.8731 18.0004C5.97245 18.5897 5.21125 19.2295 4.56336 19.9283C4.79288 19.9928 5.04274 20.0489 5.31003 20.091C9.21189 20.7392 12.0475 17.2596 12.0475 17.2596L8.60176 16.9902V16.993Z" fill="white"/>
<path d="M25.3424 22.0024H12.9046C12.4776 22.0024 12.0505 22.1343 11.6873 22.3813L9.51413 23.8545C9.01442 24.194 8.68031 24.7188 8.59896 25.2884L8.04404 29.2647C7.88715 30.3816 8.73841 31.3301 9.90054 31.3301H23.204C23.9972 31.3301 24.7468 30.8783 25.1186 30.1795L27.6056 25.5017C27.9659 24.8226 27.9048 24.0285 27.4487 23.4616L26.827 22.6899C26.4754 22.255 25.935 22.0052 25.3453 22.0052L25.3424 22.0024Z" fill="#263238"/>
<path opacity="0.1" d="M90.9068 31.7041H66.5834C66.2435 31.7041 65.9762 31.9847 66.0082 32.313L66.1331 33.6796C66.1593 33.9687 66.4091 34.1903 66.7084 34.1903H91.0318C91.3717 34.1903 91.639 33.9097 91.607 33.5814L91.4821 32.2148C91.4559 31.9258 91.2061 31.7041 90.9068 31.7041Z" fill="black"/>
<path d="M83.1553 1.36094L81.6968 1.08594L84.6748 13.7164H86.0693L83.1553 1.36094Z" fill="#2B45DA"/>
<path d="M77.8416 15.1304H82.8213L82.9491 15.6355C83.0828 16.1602 82.7516 16.5868 82.2083 16.5868H79.1955C78.6522 16.5868 78.1031 16.1602 77.9694 15.6355L77.8416 15.1304Z" fill="#263238"/>
<path d="M94.977 15.1304H99.9567L100.085 15.6355C100.218 16.1602 99.887 16.5868 99.3437 16.5868H96.3308C95.7875 16.5868 95.2384 16.1602 95.1048 15.6355L94.977 15.1304Z" fill="#263238"/>
<path opacity="0.1" d="M85.2238 30.07C85.3139 30.07 85.3894 29.9998 85.3894 29.9129L85.7555 13.3791C85.7555 13.2893 85.6858 13.2163 85.5928 13.2163H85.5899C85.4998 13.2163 85.4243 13.2865 85.4243 13.3735L85.0582 29.9072C85.0582 29.997 85.1279 30.07 85.2209 30.07H85.2238Z" fill="black"/>
</svg>
