<svg width="28" height="28" viewBox="0 0 28 28" fill="none" xmlns="http://www.w3.org/2000/svg">
<path d="M18.0596 21.7954L19.6777 23.0288C19.1992 23.3282 18.6924 23.597 18.1533 23.8296C16.8646 24.3857 15.4836 24.6665 14 24.6665C12.5163 24.6665 11.1345 24.3857 9.8457 23.8296C9.30633 23.5968 8.79906 23.3284 8.32031 23.0288L9.93945 21.7954L13.999 18.6987L18.0596 21.7954ZM5.83594 12.7144L9.91699 15.6216L8.37598 20.7104L7.78223 22.6685C7.30769 22.3299 6.86292 21.9581 6.45215 21.5474C5.49525 20.5904 4.73441 19.462 4.16992 18.1538C3.61386 16.8651 3.33305 15.4841 3.33301 14.0005C3.33301 13.0208 3.4579 12.0861 3.70117 11.1929L5.83594 12.7144ZM24.2979 11.1929C24.5411 12.0861 24.666 13.0207 24.666 14.0005C24.666 15.4841 24.3852 16.8651 23.8291 18.1538C23.2646 19.4621 22.5038 20.5904 21.5469 21.5474C21.1358 21.9584 20.6907 22.3297 20.2158 22.6685L19.623 20.7104L18.0811 15.6226L22.1631 12.7144L24.2979 11.1929ZM13.0439 5.53955L11.3945 10.8999H3.78516C3.89432 10.5422 4.02134 10.1905 4.16992 9.84619C4.73443 8.538 5.49521 7.40957 6.45215 6.45264C7.40909 5.4957 8.53751 4.73492 9.8457 4.17041C11.0534 3.64928 12.3424 3.37246 13.7207 3.33936L13.0439 5.53955ZM14.2783 3.33936C15.6567 3.37243 16.9456 3.64928 18.1533 4.17041C19.4615 4.7349 20.5899 5.49574 21.5469 6.45264C22.5038 7.40954 23.2646 8.53805 23.8291 9.84619C23.9777 10.1905 24.1047 10.5422 24.2139 10.8999H16.6045L14.9551 5.53955L14.2783 3.33936Z" stroke="#45BC69" stroke-width="2"/>
</svg>
