<svg width="24" height="24" viewBox="0 0 24 24" fill="none" xmlns="http://www.w3.org/2000/svg">
<path d="M17.75 17.1914C19.7355 17.7414 21 18.5714 21 19.4994C21 21.1559 16.9705 22.4994 12 22.4994C7.0295 22.4994 3 21.1559 3 19.4994C3 18.5714 4.264 17.7414 6.25 17.1914" stroke="#2B45DA" stroke-width="1.5" stroke-linecap="round" stroke-linejoin="round"/>
<path d="M12 19.9995C11.3455 19.9995 10.6915 19.952 10.1615 19.8985C9.477 19.829 8.9615 19.268 8.907 18.582L8.562 14.276C8.10136 14.2162 7.64251 14.1434 7.186 14.0575C6.8526 13.9963 6.5557 13.8087 6.35726 13.5339C6.15883 13.2591 6.07419 12.9182 6.121 12.5825C6.2741 11.4072 6.54291 10.25 6.9235 9.12752C7.2345 8.22152 8.061 7.64102 9.0175 7.58252C9.382 7.56052 9.8115 7.53952 10.3075 7.52452C9.70247 7.15544 9.23467 6.5987 8.97536 5.93913C8.71605 5.27955 8.67945 4.55329 8.87113 3.87099C9.06282 3.18869 9.47228 2.58774 10.0371 2.1597C10.602 1.73166 11.2913 1.5 12 1.5C12.7087 1.5 13.398 1.73166 13.9629 2.1597C14.5277 2.58774 14.9372 3.18869 15.1289 3.87099C15.3206 4.55329 15.284 5.27955 15.0246 5.93913C14.7653 6.5987 14.2975 7.15544 13.6925 7.52452C14.1228 7.53732 14.5528 7.55665 14.9825 7.58252C15.939 7.64102 16.7655 8.22152 17.0765 9.12752C17.4571 10.25 17.7259 11.4072 17.879 12.5825C17.9258 12.9183 17.8411 13.2592 17.6426 13.5341C17.444 13.8089 17.147 13.9964 16.8135 14.0575C16.3572 14.1434 15.8985 14.2162 15.438 14.276L15.0935 18.582C15.0385 19.2685 14.5235 19.8285 13.8385 19.8985C13.3085 19.952 12.6545 19.9995 12 19.9995ZM12 19.9995V15.4995" stroke="#2B45DA" stroke-width="1.5" stroke-linecap="round" stroke-linejoin="round"/>
</svg>
