<svg width="16" height="16" viewBox="0 0 16 16" fill="none" xmlns="http://www.w3.org/2000/svg">
<path fill-rule="evenodd" clip-rule="evenodd" d="M14.0047 5.51342C14.796 6.08342 15.3333 6.96675 15.3333 8.00008C15.3333 9.03341 14.796 9.91741 14.0047 10.4867C14.1647 11.4481 13.9153 12.4587 13.1867 13.1867C12.4567 13.9167 11.4467 14.1594 10.4893 14.0034C9.922 14.7974 9.03067 15.3334 8 15.3334C6.96667 15.3334 6.08133 14.7954 5.51267 14.0027C4.554 14.1594 3.54333 13.9174 2.81267 13.1867C2.08267 12.4567 1.84 11.4461 2.00133 10.4867C1.21067 9.91808 0.666668 9.03408 0.666668 8.00008C0.666668 6.96608 1.21067 6.08142 2.00133 5.51342C1.84 4.55408 2.08267 3.54341 2.81333 2.81341C3.542 2.08408 4.55333 1.83541 5.518 1.99541C6.08333 1.20275 6.96867 0.666748 8 0.666748C9.03 0.666748 9.92 1.20208 10.488 1.99541C11.4493 1.83541 12.4587 2.08541 13.1867 2.81341C13.9147 3.54141 14.1653 4.55208 14.0047 5.51342ZM11.054 5.45741C11.1253 5.50828 11.1858 5.57268 11.2322 5.64694C11.2786 5.72121 11.3099 5.80388 11.3243 5.89024C11.3387 5.9766 11.336 6.06496 11.3163 6.15026C11.2965 6.23557 11.2602 6.31615 11.2093 6.38741L7.876 11.0541C7.81973 11.1329 7.74697 11.1985 7.66278 11.2463C7.57858 11.2942 7.48498 11.3231 7.38847 11.3311C7.29196 11.3391 7.19488 11.326 7.10396 11.2926C7.01304 11.2593 6.93047 11.2066 6.862 11.1381L4.862 9.13808C4.74056 9.01235 4.67337 8.84395 4.67489 8.66915C4.6764 8.49435 4.74652 8.32714 4.87012 8.20354C4.99373 8.07993 5.16094 8.00982 5.33573 8.0083C5.51053 8.00678 5.67893 8.07398 5.80467 8.19542L7.248 9.63875L10.124 5.61208C10.2268 5.46825 10.3826 5.37115 10.557 5.34215C10.7314 5.31314 10.9102 5.35461 11.054 5.45741Z" fill="#E14688"/>
</svg>
