<svg width="25" height="24" viewBox="0 0 25 24" fill="none" xmlns="http://www.w3.org/2000/svg">
<path d="M19.3333 12C19.3333 12.2652 19.228 12.5196 19.0404 12.7071C18.8529 12.8946 18.5986 13 18.3333 13C18.0681 13 17.8138 12.8946 17.6262 12.7071C17.4387 12.5196 17.3333 12.2652 17.3333 12C17.3333 11.7348 17.4387 11.4804 17.6262 11.2929C17.8138 11.1054 18.0681 11 18.3333 11C18.5986 11 18.8529 11.1054 19.0404 11.2929C19.228 11.4804 19.3333 11.7348 19.3333 12Z" fill="#2B45DA"/>
<path fill-rule="evenodd" clip-rule="evenodd" d="M10.2773 3.25H13.3893C15.2273 3.25 16.6833 3.25 17.8223 3.403C18.9943 3.561 19.9433 3.893 20.6923 4.641C21.6163 5.566 21.9113 6.804 22.0183 8.411C22.5953 8.664 23.0313 9.201 23.0783 9.881C23.0833 9.942 23.0833 10.007 23.0833 10.067V13.933C23.0833 13.993 23.0833 14.058 23.0793 14.118C23.0313 14.798 22.5953 15.336 22.0183 15.59C21.9113 17.196 21.6163 18.434 20.6923 19.359C19.9433 20.107 18.9943 20.439 17.8223 20.597C16.6823 20.75 15.2273 20.75 13.3893 20.75H10.2773C8.43934 20.75 6.98334 20.75 5.84434 20.597C4.67234 20.439 3.72334 20.107 2.97434 19.359C2.22634 18.61 1.89434 17.661 1.73634 16.489C1.58334 15.349 1.58334 13.894 1.58334 12.056V11.944C1.58334 10.106 1.58334 8.65 1.73634 7.511C1.89434 6.339 2.22634 5.39 2.97434 4.641C3.72334 3.893 4.67234 3.561 5.84434 3.403C6.98434 3.25 8.43934 3.25 10.2773 3.25ZM20.5013 15.75H18.5633C16.4183 15.75 14.5823 14.122 14.5823 12C14.5823 9.878 16.4183 8.25 18.5623 8.25H20.5003C20.3863 6.909 20.1293 6.2 19.6303 5.702C19.2073 5.279 18.6273 5.025 17.6213 4.89C16.5943 4.752 15.2393 4.75 13.3323 4.75H10.3323C8.42534 4.75 7.07134 4.752 6.04234 4.89C5.03734 5.025 4.45734 5.279 4.03434 5.702C3.61134 6.125 3.35834 6.705 3.22334 7.71C3.08534 8.738 3.08334 10.092 3.08334 11.999C3.08334 13.906 3.08534 15.261 3.22334 16.289C3.35834 17.294 3.61234 17.874 4.03534 18.297C4.45834 18.72 5.03834 18.974 6.04434 19.109C7.07234 19.247 8.42634 19.249 10.3333 19.249H13.3333C15.2403 19.249 16.5953 19.247 17.6233 19.109C18.6283 18.974 19.2083 18.72 19.6313 18.297C20.1303 17.799 20.3873 17.091 20.5013 15.749M5.58334 8C5.58334 7.80109 5.66235 7.61032 5.80301 7.46967C5.94366 7.32902 6.13442 7.25 6.33334 7.25H10.3333C10.5322 7.25 10.723 7.32902 10.8637 7.46967C11.0043 7.61032 11.0833 7.80109 11.0833 8C11.0833 8.19891 11.0043 8.38968 10.8637 8.53033C10.723 8.67098 10.5322 8.75 10.3333 8.75H6.33334C6.13442 8.75 5.94366 8.67098 5.80301 8.53033C5.66235 8.38968 5.58334 8.19891 5.58334 8ZM21.2573 9.75H18.5633C17.1393 9.75 16.0823 10.809 16.0823 12C16.0823 13.191 17.1393 14.25 18.5623 14.25H21.2803C21.4863 14.237 21.5753 14.098 21.5823 14.014V9.986C21.5753 9.902 21.4863 9.763 21.2803 9.751L21.2573 9.75Z" fill="#2B45DA"/>
</svg>
