<svg width="16" height="17" viewBox="0 0 16 17" fill="none" xmlns="http://www.w3.org/2000/svg">
<path d="M8.49707 12.7861C8.49399 12.6915 8.50082 12.5961 8.51953 12.502C8.57906 12.2026 8.74628 11.9347 8.98926 11.75C9.23221 11.5654 9.53455 11.4763 9.83887 11.499C9.96028 11.5081 10.0784 11.5355 10.1904 11.5781C10.1547 11.5646 10.1182 11.5523 10.0811 11.542C9.7615 11.4535 9.41939 11.4958 9.13086 11.6592C8.84251 11.8225 8.63052 12.0937 8.54199 12.4131C8.50811 12.5354 8.49319 12.6615 8.49707 12.7861ZM8.49707 12.7861C8.49807 12.8169 8.50065 12.8474 8.50391 12.8779C8.5007 12.8474 8.49803 12.8168 8.49707 12.7861ZM10.0596 15.5029L10.0586 15.502L10.0596 15.5029ZM8.63477 13.3154C8.62577 13.2979 8.61653 13.2806 8.6084 13.2627C8.61649 13.2806 8.6258 13.2979 8.63477 13.3154ZM8.59082 13.2217C8.58035 13.1963 8.57125 13.1705 8.5625 13.1445C8.5712 13.1705 8.58039 13.1963 8.59082 13.2217ZM10.6416 11.874L11.5 12.7559V13.1465L10.833 12.127L10.8311 12.125C10.7728 12.0236 10.7005 11.9327 10.6182 11.8525C10.6257 11.8599 10.6342 11.8665 10.6416 11.874ZM8.50684 12.9092C8.51604 12.9796 8.53259 13.049 8.55371 13.1172C8.53248 13.0491 8.51616 12.9797 8.50684 12.9092ZM13.9824 12.5234C13.9848 12.5537 13.9874 12.5839 13.9893 12.6143C13.9874 12.5839 13.9848 12.5537 13.9824 12.5234ZM13.9453 12.1982C13.952 12.2447 13.9585 12.2912 13.9639 12.3379C13.9585 12.2912 13.952 12.2447 13.9453 12.1982ZM13.8955 11.9033C13.9043 11.9468 13.9122 11.9905 13.9199 12.0342C13.9122 11.9905 13.9043 11.9468 13.8955 11.9033ZM10.5342 11.7764C10.5547 11.7931 10.5742 11.811 10.5938 11.8291C10.5742 11.8111 10.5548 11.7931 10.5342 11.7764ZM13.833 11.6299C13.8429 11.6681 13.8513 11.7067 13.8604 11.7451C13.8513 11.7067 13.8429 11.6681 13.833 11.6299ZM10.4434 11.71C10.4589 11.7204 10.4742 11.731 10.4893 11.7422C10.4742 11.7311 10.4589 11.7204 10.4434 11.71ZM10.334 11.6445C10.3553 11.6559 10.3768 11.667 10.3975 11.6797C10.3768 11.6671 10.3554 11.6559 10.334 11.6445ZM10.2188 11.5898C10.2441 11.6002 10.2693 11.611 10.2939 11.623C10.2693 11.6111 10.2442 11.6002 10.2188 11.5898ZM13.751 11.3477C13.7583 11.3703 13.7645 11.3933 13.7715 11.416C13.7645 11.3933 13.7583 11.3703 13.751 11.3477ZM13.4971 10.71C13.5115 10.7402 13.5263 10.7703 13.54 10.8008C13.5262 10.7702 13.5114 10.7402 13.4971 10.71ZM13.3906 10.4961C13.3959 10.506 13.4001 10.5164 13.4053 10.5264C13.3906 10.4985 13.3755 10.4709 13.3604 10.4434C13.3701 10.4611 13.3811 10.4782 13.3906 10.4961ZM13.21 10.1865C13.2311 10.2203 13.2511 10.2548 13.2715 10.2891C13.2511 10.2548 13.2311 10.2203 13.21 10.1865ZM13.0518 9.94629C13.0631 9.96237 13.0738 9.9789 13.085 9.99512C13.0738 9.97891 13.0631 9.96237 13.0518 9.94629ZM12.6006 9.39453C12.6307 9.42666 12.6612 9.45833 12.6904 9.49121C12.6612 9.45835 12.6307 9.42666 12.6006 9.39453ZM12.4072 9.19824C12.4321 9.22218 12.457 9.24609 12.4814 9.27051C12.457 9.24611 12.4322 9.22217 12.4072 9.19824Z" fill="black" stroke="white"/>
</svg>
